<svg width="41" height="10" viewBox="0 0 41 10" fill="none" xmlns="http://www.w3.org/2000/svg">
<g clip-path="url(#clip0)">
<path d="M7.85619 9.99998C10.7599 10.0131 13.4103 7.77099 13.4103 5.04343C13.4103 2.06069 10.7599 -0.00102222 7.85619 -3.01597e-05H5.35719C2.41868 -0.00102222 0 2.0613 0 5.04343C0 7.77158 2.41868 10.0131 5.35719 9.99998H7.85619Z" fill="#0079BE"/>
<path d="M5.36942 0.4133C2.68429 0.414093 0.508445 2.4627 0.507812 4.99109C0.508445 7.51905 2.68427 9.56746 5.36942 9.56825C8.05519 9.56746 10.2315 7.51905 10.2319 4.99109C10.2315 2.4627 8.05519 0.414093 5.36942 0.4133ZM2.28778 4.99109C2.29031 3.75558 3.1101 2.70201 4.26611 2.28334V7.69821C3.1101 7.27978 2.29029 6.22679 2.28778 4.99109ZM6.47231 7.6994V2.28316C7.62874 2.70082 8.4498 3.75498 8.4519 4.99109C8.4498 6.22758 7.62874 7.28095 6.47231 7.6994Z" fill="white"/>
<path d="M15.1139 2.15139C15.1139 1.67835 14.8519 1.7095 14.6006 1.70436V1.56766C14.8184 1.57778 15.0416 1.57778 15.2598 1.57778C15.4944 1.57778 15.8129 1.56766 16.2265 1.56766C17.673 1.56766 18.4607 2.47718 18.4607 3.40851C18.4607 3.92934 18.137 5.23867 16.1592 5.23867C15.8745 5.23867 15.6116 5.22833 15.3491 5.22833C15.0979 5.22833 14.8519 5.23351 14.6006 5.23867V5.10216C14.9356 5.0704 15.0979 5.0599 15.1139 4.70216V2.15139H15.1139ZM15.6616 4.61823C15.6616 5.02319 15.9691 5.07042 16.2427 5.07042C17.4498 5.07042 17.8461 4.21307 17.8461 3.42934C17.8461 2.44621 17.1755 1.73629 16.0975 1.73629C15.8682 1.73629 15.7628 1.75176 15.6616 1.75734L15.6616 4.61823Z" fill="#211E1F"/>
<path d="M18.6562 5.1022H18.7621C18.9183 5.1022 19.0302 5.1022 19.0302 4.92817V3.50319C19.0302 3.27206 18.9465 3.2399 18.7397 3.13534V3.05101C19.0022 2.9768 19.3155 2.8776 19.3374 2.86172C19.3768 2.84069 19.4101 2.83514 19.4381 2.83514C19.4658 2.83514 19.4773 2.86688 19.4773 2.90914V4.92817C19.4773 5.1022 19.6002 5.1022 19.7566 5.1022H19.8515V5.23891C19.6613 5.23891 19.4657 5.22841 19.2651 5.22841C19.064 5.22841 18.8626 5.23357 18.6563 5.23891V5.1022H18.6562ZM19.2539 2.02539C19.1084 2.02539 18.9803 1.89922 18.9803 1.7625C18.9803 1.63075 19.1143 1.50952 19.2539 1.50952C19.3987 1.50952 19.5277 1.62045 19.5277 1.7625C19.5277 1.90456 19.4044 2.02539 19.2539 2.02539Z" fill="#211E1F"/>
<path d="M20.3814 3.53455C20.3814 3.3401 20.3196 3.28772 20.0576 3.18772V3.08794C20.2977 3.01433 20.5265 2.94588 20.7948 2.83516C20.8115 2.83516 20.8279 2.84588 20.8279 2.88774V3.22979C21.1468 3.01433 21.4207 2.83514 21.7954 2.83514C22.2697 2.83514 22.4373 3.16131 22.4373 3.57143V4.9282C22.4373 5.10221 22.5602 5.10221 22.7168 5.10221H22.8174V5.23891C22.6213 5.23891 22.4259 5.22842 22.2253 5.22842C22.0239 5.22842 21.8226 5.23358 21.6217 5.23891V5.10221H21.7221C21.8789 5.10221 21.99 5.10221 21.99 4.9282V3.56647C21.99 3.26628 21.7954 3.11925 21.4765 3.11925C21.298 3.11925 21.0129 3.25598 20.8279 3.37183V4.92816C20.8279 5.10219 20.9514 5.10219 21.108 5.10219H21.2084V5.2389C21.0129 5.2389 20.8171 5.22838 20.616 5.22838C20.4151 5.22838 20.2136 5.23356 20.0127 5.2389V5.10219H20.1135C20.2699 5.10219 20.3814 5.10219 20.3814 4.92816V3.53455H20.3814Z" fill="#211E1F"/>
<path d="M23.243 3.7873C23.2314 3.83474 23.2314 3.91349 23.243 4.09246C23.2759 4.59186 23.6176 5.002 24.0639 5.002C24.3714 5.002 24.6121 4.84426 24.8185 4.64982L24.8965 4.72363C24.6394 5.04426 24.321 5.31765 23.8632 5.31765C22.9747 5.31765 22.7959 4.50753 22.7959 4.17124C22.7959 3.14027 23.5333 2.83511 23.9241 2.83511C24.3769 2.83511 24.8632 3.10319 24.8685 3.66071C24.8685 3.69265 24.8685 3.7238 24.8632 3.75575L24.8126 3.7873H23.243ZM24.2321 3.61886C24.3714 3.61886 24.3879 3.55041 24.3879 3.48751C24.3879 3.21924 24.2148 3.00357 23.9018 3.00357C23.5613 3.00357 23.3267 3.23988 23.2597 3.61886H24.2321Z" fill="#211E1F"/>
<path d="M24.9971 5.1022H25.148C25.3039 5.1022 25.4157 5.1022 25.4157 4.92817V3.45059C25.4157 3.28769 25.2093 3.25595 25.1252 3.21388V3.13531C25.5331 2.97202 25.7568 2.83511 25.8076 2.83511C25.8407 2.83511 25.8571 2.85099 25.8571 2.90376V3.37698H25.8689C26.0082 3.17202 26.2433 2.83511 26.5837 2.83511C26.7235 2.83511 26.902 2.9244 26.902 3.11388C26.902 3.25595 26.7962 3.38253 26.6398 3.38253C26.4659 3.38253 26.4659 3.25595 26.2707 3.25595C26.1757 3.25595 25.863 3.37698 25.863 3.69265V4.92817C25.863 5.10218 25.9745 5.10218 26.1312 5.10218H26.4438V5.2389C26.1364 5.23353 25.9027 5.22839 25.6619 5.22839C25.433 5.22839 25.1982 5.23355 24.9971 5.2389V5.1022H24.9971Z" fill="#211E1F"/>
<path d="M27.1477 4.50754C27.2204 4.85477 27.4436 5.14943 27.8517 5.14943C28.1806 5.14943 28.3036 4.96014 28.3036 4.77602C28.3036 4.15538 27.0861 4.35518 27.0861 3.50856C27.0861 3.21391 27.3378 2.83514 27.952 2.83514C28.1306 2.83514 28.3707 2.88276 28.5884 2.98812L28.6281 3.52405H28.4993C28.4436 3.19308 28.2482 3.00362 27.8903 3.00362C27.6668 3.00362 27.4548 3.12467 27.4548 3.35064C27.4548 3.96651 28.7508 3.77663 28.7508 4.60223C28.7508 4.94925 28.4546 5.3177 27.7897 5.3177C27.5663 5.3177 27.3038 5.24409 27.1084 5.13913L27.0469 4.53419L27.1477 4.50754Z" fill="#211E1F"/>
<path d="M33.7957 2.51965H33.6564C33.5502 1.90457 33.0864 1.65715 32.461 1.65715C31.818 1.65715 30.8851 2.06189 30.8851 3.32401C30.8851 4.38711 31.6901 5.14939 32.5501 5.14939C33.103 5.14939 33.5615 4.79185 33.6732 4.23949L33.8014 4.27084L33.6732 5.03868C33.4386 5.17578 32.8073 5.31767 32.4382 5.31767C31.1312 5.31767 30.3047 4.52344 30.3047 3.34008C30.3047 2.26191 31.3268 1.48849 32.4217 1.48849C32.8741 1.48849 33.3098 1.6258 33.7401 1.76786L33.7957 2.51965Z" fill="#211E1F"/>
<path d="M33.9971 5.1022H34.1029C34.2596 5.1022 34.3717 5.1022 34.3717 4.92817V1.99922C34.3717 1.65715 34.2878 1.64662 34.0753 1.58888V1.50475C34.2987 1.43652 34.5334 1.34166 34.6508 1.27838C34.7117 1.24704 34.7568 1.22043 34.7732 1.22043C34.8074 1.22043 34.8186 1.25219 34.8186 1.29444V4.92817C34.8186 5.1022 34.9413 5.1022 35.0979 5.1022H35.1921V5.2389C35.003 5.2389 34.8074 5.22838 34.6061 5.22838C34.4052 5.22838 34.2041 5.23356 33.9971 5.2389V5.1022H33.9971Z" fill="#211E1F"/>
<path d="M37.5846 4.94922C37.5846 5.04426 37.6458 5.04942 37.7406 5.04942C37.8079 5.04942 37.8913 5.04426 37.9643 5.04426V5.15498C37.7238 5.17581 37.2657 5.28633 37.1594 5.31768L37.1314 5.30178V4.87621C36.7967 5.13373 36.5393 5.31768 36.1423 5.31768C35.8407 5.31768 35.5279 5.13373 35.5279 4.69226V3.34544C35.5279 3.20873 35.5058 3.07716 35.1934 3.05099V2.95099C35.3947 2.94583 35.8407 2.91427 35.9137 2.91427C35.9756 2.91427 35.9756 2.95099 35.9756 3.06667V4.42319C35.9756 4.58135 35.9756 5.03351 36.4613 5.03351C36.6512 5.03351 36.9025 4.8968 37.1369 4.71327V3.2978C37.1369 3.19304 36.869 3.1353 36.6683 3.0825V2.98786C37.1704 2.95611 37.4839 2.91425 37.5393 2.91425C37.5846 2.91425 37.5846 2.95095 37.5846 3.00909V4.94922H37.5846Z" fill="#211E1F"/>
<path d="M38.6955 3.2139C38.9187 3.03511 39.2203 2.83513 39.5279 2.83513C40.1761 2.83513 40.5667 3.36688 40.5667 3.93967C40.5667 4.62858 40.0306 5.31765 39.2313 5.31765C38.8181 5.31765 38.6004 5.19126 38.4549 5.1337L38.2875 5.25434L38.1706 5.19682C38.2201 4.8865 38.2486 4.58134 38.2486 4.26071V1.9992C38.2486 1.65715 38.1642 1.64662 37.9521 1.58888V1.50475C38.1762 1.43652 38.4102 1.34166 38.5276 1.27837C38.5892 1.24702 38.6337 1.22043 38.651 1.22043C38.6843 1.22043 38.6954 1.25219 38.6954 1.29444V3.21388H38.6955V3.2139ZM38.6955 4.64426C38.6955 4.84426 38.8964 5.18116 39.2707 5.18116C39.8685 5.18116 40.1198 4.62858 40.1198 4.16035C40.1198 3.59249 39.6622 3.11928 39.2262 3.11928C39.019 3.11928 38.8462 3.24567 38.6955 3.36688V4.64426H38.6955Z" fill="#211E1F"/>
<path d="M14.5938 8.29662H14.6365C14.7457 8.29662 14.8613 8.28275 14.8613 8.13373V6.63452C14.8613 6.48529 14.7457 6.47123 14.6365 6.47123H14.5938V6.38531C14.7124 6.38531 14.8948 6.39662 15.0442 6.39662C15.196 6.39662 15.3781 6.38531 15.521 6.38531V6.47123H15.4783C15.3693 6.47123 15.2536 6.48531 15.2536 6.63452V8.13373C15.2536 8.28275 15.3693 8.29662 15.4783 8.29662H15.521V8.38295C15.3752 8.38295 15.1924 8.37164 15.0408 8.37164C14.8918 8.37164 14.7124 8.38295 14.5938 8.38295V8.29662Z" fill="#211E1F"/>
<path d="M15.5204 8.39506C15.3735 8.39506 15.1914 8.38355 15.04 8.38355C14.8914 8.38355 14.7127 8.39506 14.5931 8.39506H14.5801V8.38276V8.29685V8.28435H14.5931H14.6357C14.746 8.28197 14.8463 8.27363 14.8474 8.13375V6.63452C14.8463 6.49464 14.746 6.4853 14.6357 6.48333H14.5801V6.47125V6.37262H14.5931C14.7127 6.37262 14.8948 6.38393 15.0434 6.38393C15.1947 6.38393 15.3767 6.37262 15.5204 6.37262H15.5339V6.38571V6.48333H15.5204H15.4778C15.3676 6.48532 15.2666 6.49464 15.266 6.63452V8.13375C15.2666 8.27363 15.3676 8.28197 15.4778 8.28435H15.5339V8.29685V8.39506H15.5204ZM15.5074 8.37064V8.30952H15.4779C15.3693 8.30952 15.2401 8.29187 15.2394 8.13375V6.63452C15.2401 6.47639 15.3693 6.45853 15.4779 6.45853H15.5074V6.39782C15.367 6.39782 15.1909 6.40893 15.0434 6.40893C14.899 6.40893 14.7242 6.39861 14.6066 6.39782V6.45853H14.6357C14.7441 6.45853 14.8737 6.47639 14.8737 6.63452V8.13375C14.8737 8.29189 14.7441 8.30952 14.6357 8.30952H14.6066V8.37064C14.7242 8.36945 14.896 8.35913 15.04 8.35913C15.188 8.35913 15.364 8.36984 15.5074 8.37064Z" fill="#211E1F"/>
<path d="M17.6098 7.81885L17.6159 7.8133V6.74028C17.6159 6.50536 17.4424 6.47123 17.3514 6.47123H17.2843V6.3853C17.4274 6.3853 17.5672 6.39661 17.7099 6.39661C17.8345 6.39661 17.9597 6.3853 18.0841 6.3853V6.47123H18.0385C17.9106 6.47123 17.7677 6.49403 17.7677 6.83453V8.13691C17.7677 8.23693 17.7708 8.33691 17.7858 8.42562H17.6701L16.1049 6.78296V7.96212C16.1049 8.21113 16.1561 8.29665 16.3905 8.29665H16.4419V8.38296C16.3115 8.38296 16.181 8.37165 16.0501 8.37165C15.9137 8.37165 15.7737 8.38296 15.6367 8.38296V8.29665H15.6793C15.889 8.29665 15.9527 8.1625 15.9527 7.93375V6.72839C15.9527 6.56828 15.8125 6.47125 15.6764 6.47125H15.6367V6.38534C15.7522 6.38534 15.8707 6.39663 15.986 6.39663C16.0773 6.39663 16.1656 6.38534 16.2567 6.38534L17.6098 7.81885Z" fill="#211E1F"/>
<path d="M17.7847 8.43811L17.6593 8.43373L16.1166 6.81529V7.96212C16.1202 8.21093 16.1605 8.28158 16.3894 8.28434H16.4545V8.29664V8.39506H16.4411C16.3095 8.39506 16.1786 8.38355 16.049 8.38355C15.9128 8.38355 15.7732 8.39506 15.6354 8.39506H15.6221V8.38276V8.28434H15.6354H15.6782C15.8791 8.28335 15.9364 8.16192 15.9387 7.93375V6.72859C15.9383 6.57621 15.8055 6.48375 15.6752 6.48335H15.6221V6.47065V6.37303H15.6353C15.7515 6.37303 15.8706 6.38394 15.9846 6.38394C16.0751 6.38394 16.1632 6.37303 16.2656 6.3772L17.6017 7.79289V6.74051C17.6 6.51273 17.4387 6.48535 17.3502 6.48335H17.2697V6.47065V6.37303H17.2831C17.4267 6.37303 17.5667 6.38394 17.7087 6.38394C17.8325 6.38394 17.9571 6.37303 18.0827 6.37303H18.096V6.38533V6.48333H18.0827H18.0374C17.912 6.48672 17.7832 6.49702 17.7796 6.83452V8.1367C17.7796 8.2367 17.7827 8.3367 17.7975 8.42341L17.8005 8.43809H17.7847V8.43811ZM17.6692 8.41289H17.7697C17.756 8.32698 17.7537 8.23174 17.7537 8.1367V6.83452C17.7537 6.49107 17.9065 6.45855 18.0374 6.45855H18.0695V6.39781C17.9497 6.39861 17.8296 6.40892 17.7088 6.40892C17.5697 6.40892 17.4344 6.39861 17.2967 6.39781L17.2965 6.45855H17.3503C17.4436 6.45855 17.6281 6.49781 17.6281 6.74049L17.6239 7.82182L17.6178 7.82779L17.6075 7.83672L16.2556 6.39781C16.1654 6.39781 16.0773 6.40892 15.9847 6.40892C15.8732 6.40892 15.7592 6.39861 15.6489 6.39781L15.6483 6.45853H15.6753C15.818 6.45853 15.9645 6.56111 15.9645 6.72857V7.93373C15.9645 8.16248 15.8968 8.30891 15.6782 8.3097L15.6489 8.30891V8.37061C15.7807 8.36942 15.916 8.3591 16.049 8.3591C16.1759 8.3591 16.3022 8.36944 16.4278 8.37061V8.3097H16.3895C16.1502 8.30891 16.0908 8.21091 16.0905 7.96208V6.75077L17.6692 8.41289ZM17.6087 7.81865L17.6184 7.81031L17.6087 7.81865ZM17.6017 7.81311V7.81212L17.5992 7.81012L17.6017 7.81311Z" fill="#211E1F"/>
<path d="M18.5388 6.52817C18.3105 6.52817 18.3018 6.57978 18.2563 6.78849H18.165C18.1771 6.70853 18.1922 6.62857 18.2015 6.54524C18.2137 6.46508 18.2196 6.3853 18.2196 6.30238H18.2928C18.3172 6.38829 18.3931 6.38532 18.4755 6.38532H20.0437C20.1259 6.38532 20.2018 6.38254 20.2081 6.29645L20.2806 6.30796C20.2688 6.38532 20.2565 6.46252 20.2473 6.53988C20.2418 6.61708 20.2418 6.69444 20.2418 6.77143L20.1503 6.80337C20.144 6.69762 20.1288 6.52817 19.9254 6.52817H19.4269V8.05079C19.4269 8.27143 19.5333 8.29665 19.6788 8.29665H19.7367V8.38296C19.6183 8.38296 19.4052 8.37165 19.2413 8.37165C19.059 8.37165 18.8459 8.38296 18.7272 8.38296V8.29665H18.7852C18.9528 8.29665 19.0375 8.28254 19.0375 8.05675V6.52817H18.5388Z" fill="#211E1F"/>
<path d="M19.7367 8.39505C19.617 8.39505 19.4043 8.38355 19.2409 8.38355C19.0588 8.38355 18.8461 8.39505 18.7268 8.39505H18.7141V8.38295V8.28434H18.7268H18.7848C18.9523 8.28057 19.0198 8.27859 19.0236 8.05674V6.54069H18.5383V6.52817V6.51547H19.05V8.05674C19.05 8.2863 18.9517 8.30952 18.7848 8.30972H18.7401V8.37003C18.86 8.36946 19.0645 8.35912 19.2409 8.35912C19.3995 8.35912 19.6027 8.36946 19.7228 8.37003V8.30972H19.6783C19.5314 8.30952 19.4132 8.27559 19.4132 8.05079V6.51547H19.925C20.129 6.51627 20.1556 6.67956 20.1623 6.78571L20.2279 6.76289C20.2279 6.68829 20.2283 6.61349 20.2338 6.53809C20.2426 6.46448 20.2538 6.39147 20.2652 6.31845L20.2188 6.31111C20.2047 6.39444 20.1193 6.39861 20.0428 6.39781H18.4751H18.4593C18.3878 6.39781 18.3096 6.39464 18.2824 6.3147H18.2323C18.2318 6.39387 18.2259 6.47065 18.2143 6.54682C18.2055 6.62541 18.1916 6.70101 18.1802 6.7766H18.2453C18.2854 6.57718 18.3115 6.5125 18.5383 6.51549V6.52819V6.54069C18.3136 6.54446 18.3183 6.58017 18.2687 6.79168L18.2664 6.8014H18.2559H18.1494L18.1511 6.78652C18.1633 6.70637 18.1787 6.62658 18.1878 6.54325C18.2004 6.46389 18.2063 6.38452 18.2063 6.30238V6.28988H18.2192H18.3027L18.3048 6.29881C18.3256 6.37103 18.3819 6.37142 18.4593 6.37262H18.4751H20.0428C20.1276 6.37142 20.1891 6.37023 20.1944 6.29541L20.1956 6.28192L20.2093 6.2847L20.2951 6.29742L20.2932 6.30992C20.281 6.3865 20.269 6.46389 20.2601 6.54067C20.254 6.61686 20.254 6.69424 20.254 6.77142V6.78035L20.2456 6.78353L20.1379 6.82041L20.137 6.80375C20.129 6.69621 20.117 6.54065 19.925 6.54065H19.4397V8.05077C19.4424 8.26664 19.5335 8.28152 19.6783 8.2843H19.7496V8.2966V8.39502L19.7367 8.39505Z" fill="#211E1F"/>
<path d="M20.377 8.29662H20.4197C20.529 8.29662 20.6446 8.28275 20.6446 8.13373V6.63452C20.6446 6.48529 20.529 6.47123 20.4197 6.47123H20.377V6.38531C20.562 6.38531 20.8787 6.39662 21.1335 6.39662C21.3894 6.39662 21.705 6.38531 21.9116 6.38531C21.9065 6.50813 21.9093 6.69742 21.9183 6.82303L21.8266 6.84603C21.8121 6.66014 21.7756 6.51153 21.4562 6.51153H21.034V7.26093H21.3953C21.5776 7.26093 21.6175 7.16391 21.6354 7.00897H21.7265C21.7206 7.12105 21.7174 7.23258 21.7174 7.34408C21.7174 7.45301 21.7206 7.56154 21.7265 7.67027L21.6354 7.68732C21.6175 7.51571 21.6083 7.40418 21.3983 7.40418H21.034V8.07065C21.034 8.25696 21.2096 8.25696 21.4044 8.25696C21.7693 8.25696 21.9301 8.23375 22.0214 7.90795L22.1066 7.9276C22.0667 8.07958 22.0305 8.23097 22.0035 8.38295C21.8087 8.38295 21.459 8.37164 21.1858 8.37164C20.9118 8.37164 20.5503 8.38295 20.377 8.38295V8.29662Z" fill="#211E1F"/>
<path d="M22.0034 8.39505C21.8082 8.39505 21.4587 8.38333 21.1857 8.38333C20.9119 8.38333 20.5506 8.39505 20.3771 8.39505H20.3643V8.38295V8.29664V8.28434H20.3771H20.4197C20.5299 8.28275 20.6298 8.27363 20.6313 8.13375V6.63452C20.6299 6.49484 20.5299 6.48551 20.4197 6.48333H20.3643V6.47125V6.37303H20.3771C20.5626 6.37303 20.8788 6.38394 21.1336 6.38394C21.3893 6.38394 21.7047 6.37303 21.9117 6.37303H21.9254L21.9247 6.38573C21.9226 6.42879 21.9218 6.47956 21.9218 6.53355C21.9218 6.63254 21.9247 6.74067 21.9309 6.82224L21.9313 6.83256L21.9212 6.83535L21.8143 6.86154L21.8137 6.84686C21.7958 6.66115 21.7694 6.52642 21.4564 6.52365H21.0468L21.0464 7.24805H21.3955C21.5705 7.24646 21.6018 7.16214 21.6225 7.00797L21.6236 6.99666H21.6354H21.7402L21.74 7.00954C21.7341 7.12105 21.7302 7.23256 21.7302 7.34406C21.7302 7.4524 21.7341 7.56093 21.74 7.66986L21.7402 7.68L21.7292 7.68236L21.6236 7.7022L21.6225 7.68871C21.6017 7.5141 21.6002 7.41847 21.3982 7.41631L21.0468 7.41609V8.07065C21.0471 8.24446 21.2064 8.24347 21.4046 8.24446C21.7705 8.24248 21.9172 8.22583 22.0089 7.90438L22.0119 7.89287L22.0247 7.89506L22.1221 7.91865L22.1192 7.93057C22.08 8.08216 22.0435 8.23335 22.0163 8.38492L22.0138 8.39505H22.0034ZM21.9922 8.37005C22.0186 8.22579 22.0533 8.08097 22.0907 7.9369L22.0306 7.92261C21.9395 8.24287 21.7633 8.27142 21.4045 8.26926C21.2131 8.26926 21.0213 8.26926 21.0204 8.07063V7.39166H21.3982C21.6104 7.38948 21.6322 7.51011 21.6471 7.67301L21.7129 7.66013C21.707 7.55476 21.7043 7.449 21.7043 7.34404C21.7043 7.23631 21.707 7.12918 21.7129 7.02142H21.6471C21.6303 7.17043 21.5807 7.27519 21.3955 7.27321H21.0204V6.49861H21.4564C21.7726 6.4966 21.8251 6.65019 21.8386 6.83015L21.9041 6.81349C21.8989 6.73273 21.8953 6.62916 21.8953 6.53353C21.8953 6.48452 21.8965 6.43829 21.8982 6.39781C21.6917 6.39861 21.3839 6.40892 21.1337 6.40892C20.8839 6.40892 20.5763 6.39861 20.3902 6.39781V6.45853H20.4197C20.528 6.45853 20.6575 6.47639 20.6579 6.63452V8.13375C20.6575 8.29148 20.528 8.30894 20.4197 8.30974H20.3902V8.37005C20.5675 8.36984 20.9187 8.35914 21.1857 8.35914C21.4538 8.35914 21.7962 8.36984 21.9922 8.37005Z" fill="#211E1F"/>
<path d="M22.5177 6.68849C22.5177 6.47976 22.3963 6.47123 22.3017 6.47123H22.2471V6.38512C22.3444 6.38512 22.5327 6.39662 22.7182 6.39662C22.9005 6.39662 23.0466 6.38512 23.2075 6.38512C23.5902 6.38512 23.9311 6.48254 23.9311 6.88928C23.9311 7.14623 23.7488 7.30377 23.5087 7.39285L24.0283 8.125C24.1134 8.24603 24.174 8.27996 24.3232 8.2966V8.38293C24.2229 8.38293 24.1255 8.37162 24.0253 8.37162C23.9311 8.37162 23.8335 8.38293 23.7397 8.38293C23.5057 8.09385 23.3046 7.78472 23.1071 7.45535H22.9071V8.06805C22.9071 8.28869 23.0161 8.29662 23.1558 8.29662H23.2106V8.38295C23.0369 8.38295 22.8614 8.37164 22.6878 8.37164C22.5418 8.37164 22.3988 8.38295 22.2471 8.38295V8.29662H22.3017C22.4146 8.29662 22.5177 8.24861 22.5177 8.14246V6.68849ZM22.907 7.35238H23.0555C23.3596 7.35238 23.5234 7.24367 23.5234 6.90595C23.5234 6.65158 23.3504 6.48829 23.0795 6.48829C22.9882 6.48829 22.9494 6.49722 22.907 6.4998V7.35238H22.907Z" fill="#211E1F"/>
<path d="M24.3229 8.39505C24.221 8.39505 24.1243 8.38354 24.0244 8.38354C23.9316 8.38354 23.8347 8.39505 23.7286 8.39029C23.4955 8.10239 23.2956 7.79505 23.0992 7.46806H22.9196V8.06769C22.9227 8.28296 23.0147 8.28118 23.1553 8.28435H23.2233V8.29665V8.39507H23.2098C23.0361 8.39507 22.8597 8.38356 22.6871 8.38356C22.5418 8.38356 22.3993 8.39507 22.2467 8.39507H22.2334V8.38277V8.28435H22.2467H22.3013C22.4109 8.28376 22.5032 8.23892 22.5037 8.14249V6.68854C22.5014 6.48536 22.3958 6.48653 22.3013 6.48358H22.2334V6.47128V6.37267H22.2467C22.3451 6.37267 22.5328 6.38396 22.7178 6.38396C22.8993 6.38396 23.0454 6.37267 23.2073 6.37267C23.5903 6.37346 23.9432 6.47306 23.9443 6.88854C23.9443 7.14707 23.7628 7.30836 23.5281 7.39846L24.0389 8.11828C24.1239 8.23693 24.1768 8.26652 24.3248 8.28435L24.3359 8.28594V8.29665V8.39507H24.3229V8.39505ZM22.9063 7.44304H23.1142L23.1177 7.44939C23.3159 7.77816 23.5155 8.08689 23.7394 8.37062C23.8321 8.37062 23.9297 8.35892 24.0244 8.35892C24.1215 8.35892 24.2151 8.36884 24.3098 8.37023V8.30753C24.1671 8.29086 24.1003 8.25078 24.0172 8.13193L23.4883 7.38687L23.5033 7.38112C23.7411 7.29304 23.9171 7.14007 23.9173 6.88846C23.9171 6.49143 23.5895 6.39939 23.2073 6.3978C23.0469 6.3978 22.901 6.40911 22.7178 6.40911C22.5393 6.40911 22.3591 6.3986 22.2596 6.3978V6.45852H22.3013C22.3957 6.45874 22.5302 6.4734 22.5302 6.6885V8.14245C22.5302 8.25733 22.4157 8.30971 22.3013 8.30991H22.2596V8.37021C22.4059 8.36981 22.5443 8.35892 22.6871 8.35892C22.8571 8.35892 23.0285 8.36983 23.1968 8.37021V8.30991H23.1552C23.0165 8.30969 22.893 8.29344 22.893 8.06765V7.44304H22.9063H22.9063ZM22.9063 7.36447H22.893V6.48828L22.9046 6.48729C22.9461 6.48433 22.9873 6.47618 23.0792 6.47618C23.3562 6.47618 23.5362 6.64562 23.5366 6.90651C23.5357 7.24818 23.3616 7.36425 23.0551 7.36445H22.9063V7.36447ZM23.0551 7.33989C23.3561 7.33749 23.5075 7.23909 23.5107 6.90653C23.509 6.65653 23.3439 6.50138 23.0791 6.50038C22.9969 6.50038 22.9584 6.50753 22.9196 6.51072V7.33989H23.0551Z" fill="#211E1F"/>
<path d="M26.3869 7.81885L26.3924 7.8133V6.74028C26.3924 6.50536 26.2193 6.47123 26.1283 6.47123H26.0617V6.3853C26.2044 6.3853 26.3439 6.39661 26.487 6.39661C26.6118 6.39661 26.736 6.3853 26.8614 6.3853V6.47123H26.8157C26.688 6.47123 26.545 6.49403 26.545 6.83453V8.13691C26.545 8.23693 26.548 8.33691 26.5629 8.42562H26.4476L24.8823 6.78296V7.96212C24.8823 8.21113 24.9339 8.29665 25.1679 8.29665H25.2195V8.38296C25.089 8.38296 24.9581 8.37165 24.8277 8.37165C24.6904 8.37165 24.5507 8.38296 24.4141 8.38296V8.29665H24.4562C24.6662 8.29665 24.73 8.1625 24.73 7.93375V6.72839C24.73 6.56828 24.5903 6.47125 24.4537 6.47125H24.4141V6.38534C24.5292 6.38534 24.6483 6.39663 24.7636 6.39663C24.8542 6.39663 24.9427 6.38534 25.034 6.38534L26.3869 7.81885Z" fill="#211E1F"/>
<path d="M26.5631 8.43789L26.438 8.43392L24.8952 6.81529V7.96192C24.8987 8.21093 24.9388 8.28154 25.1681 8.28434H25.2324V8.29664V8.39506H25.2191C25.0876 8.39506 24.9573 8.38333 24.827 8.38333C24.6913 8.38333 24.5509 8.39506 24.4141 8.39506H24.4004V8.38295V8.28434H24.4141H24.4562C24.6569 8.28355 24.7145 8.16192 24.7164 7.93295V6.72839C24.7162 6.57599 24.5836 6.48355 24.4537 6.48333H24.4004V6.47125V6.37263H24.4141C24.53 6.37263 24.6489 6.38392 24.7636 6.38392C24.853 6.38392 24.9411 6.37263 25.0431 6.37658L26.3794 7.79287V6.74008C26.3785 6.51269 26.2166 6.48452 26.1283 6.48335H26.048V6.47125V6.37263H26.0613C26.205 6.37263 26.345 6.38392 26.4871 6.38392C26.611 6.38392 26.7356 6.37263 26.8608 6.37263H26.8741V6.38553V6.48335H26.8608H26.8157C26.6903 6.48652 26.561 6.49702 26.5579 6.83454V8.1367C26.5579 8.2367 26.5606 8.33591 26.576 8.424L26.5777 8.43789H26.5631ZM26.4477 8.41289H26.5476C26.5343 8.32698 26.5313 8.23174 26.5313 8.1367V6.83452C26.5315 6.49105 26.6854 6.45932 26.8157 6.45833H26.8475V6.39781C26.7282 6.39861 26.6079 6.40892 26.487 6.40892C26.3475 6.40892 26.2119 6.39861 26.0743 6.39781V6.45833H26.1283C26.2219 6.45932 26.4061 6.49781 26.4061 6.74008L26.4019 7.82182L26.396 7.82777L26.3868 7.8369L25.0339 6.39783C24.9436 6.39783 24.8555 6.40894 24.7636 6.40894C24.651 6.40894 24.5374 6.39863 24.4268 6.39783V6.45835H24.4537C24.5965 6.45934 24.743 6.56073 24.743 6.72839V7.93293C24.743 8.16269 24.6742 8.30892 24.4563 8.30972L24.4268 8.30952V8.37004C24.5581 8.36944 24.6936 8.35912 24.8271 8.35912C24.9546 8.35912 25.0809 8.36944 25.2065 8.37004V8.30972H25.1681C24.9287 8.30952 24.8688 8.21093 24.8684 7.9619V6.75119L26.4477 8.41289ZM26.3869 7.81865L26.3962 7.81051L26.3869 7.81865ZM26.3794 7.81329V7.81228L26.377 7.81012L26.3794 7.81329Z" fill="#211E1F"/>
<path d="M27.3505 7.97361C27.3197 8.07064 27.2831 8.14563 27.2831 8.19663C27.2831 8.28274 27.411 8.29663 27.511 8.29663H27.5449V8.38294C27.4231 8.37677 27.2989 8.37163 27.1764 8.37163C27.067 8.37163 26.9582 8.37681 26.8486 8.38294V8.29663H26.867C26.9854 8.29663 27.086 8.23093 27.1309 8.11052L27.6178 6.7974C27.657 6.69145 27.7122 6.54839 27.7306 6.44226C27.8274 6.41111 27.9492 6.35397 28.0068 6.31944C28.0162 6.31649 28.0215 6.31349 28.031 6.31349C28.0401 6.31349 28.046 6.31349 28.0527 6.32242C28.0616 6.34504 28.0704 6.37103 28.0801 6.39385L28.6394 7.89067C28.6758 7.99067 28.7118 8.09643 28.7513 8.18254C28.788 8.2627 28.8521 8.29663 28.9526 8.29663H28.9705V8.38294C28.8338 8.37679 28.6967 8.37165 28.5513 8.37165C28.4022 8.37165 28.2498 8.37681 28.0949 8.38294V8.29663H28.1286C28.1982 8.29663 28.3171 8.28552 28.3171 8.21389C28.3171 8.17679 28.2897 8.0996 28.2557 8.00774L28.1375 7.67579H27.4476L27.3505 7.97361ZM27.794 6.70575H27.7879L27.5052 7.51567H28.0733L27.794 6.70575Z" fill="#211E1F"/>
<path d="M28.9693 8.39506C28.8325 8.38931 28.6956 8.38334 28.5508 8.38334C28.4018 8.38334 28.2504 8.38931 28.0949 8.39506L28.0812 8.39586V8.38296V8.28395H28.0945H28.128C28.1984 8.28395 28.3029 8.26887 28.3029 8.21393C28.3038 8.18137 28.2764 8.1028 28.2428 8.01175L28.1271 7.68814H27.4566L27.3621 7.97721C27.3313 8.07483 27.2949 8.15042 27.2951 8.19705C27.2961 8.26691 27.4098 8.28395 27.5105 8.28395H27.5573V8.29685V8.39586L27.5436 8.39506C27.422 8.38931 27.2979 8.38334 27.1766 8.38334C27.0677 8.38334 26.9581 8.38931 26.8491 8.39506L26.835 8.39586V8.38296V8.28395H26.8482H26.8664C26.9795 8.28356 27.074 8.22306 27.1179 8.10659L27.6046 6.7933C27.6444 6.68715 27.6992 6.54449 27.7256 6.4304C27.8209 6.40005 27.9429 6.34251 28.0015 6.30759C28.0099 6.30501 28.0184 6.30104 28.0308 6.30104C28.0382 6.30084 28.0546 6.30263 28.0644 6.31773C28.073 6.34132 28.0825 6.36673 28.0917 6.38995L28.6516 7.88659C28.6875 7.98699 28.7237 8.09274 28.7634 8.17725C28.7986 8.25366 28.8544 8.2836 28.9522 8.28399H28.9832V8.29689V8.3959L28.9693 8.39506ZM28.1077 8.36947C28.2582 8.36451 28.4056 8.35895 28.5508 8.35895C28.692 8.35895 28.8242 8.36451 28.9564 8.36947V8.30973H28.9522C28.8481 8.31032 28.7762 8.27185 28.7388 8.18753C28.6992 8.10062 28.6621 7.99447 28.6265 7.89427L28.0668 6.39784C28.0576 6.37503 28.0487 6.34904 28.0407 6.3288C28.0382 6.32602 28.0388 6.32602 28.0363 6.32602H28.0308C28.0244 6.32602 28.0209 6.32781 28.013 6.32979C27.9545 6.3657 27.8324 6.42185 27.7424 6.44427C27.7236 6.55261 27.669 6.69546 27.6294 6.80142L27.1429 8.11491C27.0965 8.23911 26.9901 8.30995 26.8663 8.30973H26.8615V8.36947C26.9656 8.36451 27.071 8.35895 27.1766 8.35895C27.294 8.35895 27.4142 8.36451 27.5301 8.36947V8.30973H27.5105C27.4117 8.30854 27.2734 8.29802 27.2696 8.19703C27.2698 8.13989 27.3071 8.06669 27.3368 7.97007L27.3501 7.97382L27.3368 7.96965L27.4369 7.6637H28.1457L28.2677 8.0038C28.3019 8.09566 28.3295 8.17185 28.3295 8.21391C28.3253 8.30181 28.1969 8.30796 28.1279 8.30975H28.1077V8.36947H28.1077ZM27.4863 7.52798L27.7774 6.69326H27.7875H27.7939V6.70576L27.7905 6.70636L27.7939 6.70576V6.69326H27.8029L28.0915 7.52798H27.4863ZM27.5228 7.50318H28.0548L27.7902 6.73632L27.5228 7.50318ZM27.7806 6.70935L27.7875 6.70717L27.7806 6.70935Z" fill="#211E1F"/>
<path d="M29.1037 6.52817C28.8756 6.52817 28.8666 6.57978 28.8208 6.78849H28.7295C28.7415 6.70853 28.7569 6.62857 28.7664 6.54524C28.7786 6.46508 28.7841 6.3853 28.7841 6.30238H28.8575C28.8817 6.38829 28.958 6.38532 29.0396 6.38532H30.6086C30.6902 6.38532 30.7661 6.38254 30.7724 6.29645L30.8451 6.30796C30.8335 6.38532 30.8215 6.46252 30.8122 6.53988C30.8057 6.61708 30.8057 6.69444 30.8057 6.77143L30.7146 6.80337C30.7089 6.69762 30.6937 6.52817 30.4899 6.52817H29.9914V8.05079C29.9914 8.27143 30.098 8.29665 30.2435 8.29665H30.3012V8.38296C30.1828 8.38296 29.9703 8.37165 29.8058 8.37165C29.6237 8.37165 29.4106 8.38296 29.2922 8.38296V8.29665H29.3497C29.5173 8.29665 29.6024 8.28254 29.6024 8.05675V6.52817H29.1037Z" fill="#211E1F"/>
<path d="M30.301 8.39505C30.1817 8.39505 29.9688 8.38355 29.8056 8.38355C29.6239 8.38355 29.411 8.39505 29.2919 8.39505H29.2784V8.38295V8.28434H29.2919H29.3495C29.517 8.28057 29.5843 8.27859 29.5885 8.05674L29.5881 6.54069H29.1035V6.52817V6.51547H29.6149V8.05674C29.6149 8.2863 29.5164 8.30892 29.3495 8.30952H29.3048V8.37063C29.4251 8.36942 29.6292 8.35912 29.8056 8.35912C29.9644 8.35912 30.1676 8.36946 30.2877 8.37063V8.30952H30.2428C30.0967 8.30892 29.9783 8.27579 29.9779 8.05079V6.51547H30.4897C30.6937 6.51626 30.7205 6.67956 30.7262 6.78571L30.7926 6.76289C30.7926 6.68829 30.7928 6.61348 30.7987 6.53848C30.8071 6.46487 30.8185 6.39146 30.8297 6.31843L30.7837 6.31108C30.7698 6.39442 30.684 6.399 30.6084 6.39779H29.0394H29.024C28.9523 6.39858 28.8747 6.39462 28.8471 6.31426H28.7974C28.7965 6.39362 28.7908 6.47063 28.7788 6.54682C28.7708 6.62559 28.7558 6.70138 28.7445 6.77658H28.8096C28.8499 6.57716 28.8762 6.51247 29.1034 6.51547V6.52817V6.54067C28.8781 6.54426 28.8832 6.58015 28.8334 6.79166L28.8311 6.80138H28.8205H28.7139L28.7158 6.78708C28.7284 6.70634 28.7436 6.62656 28.7524 6.54382C28.7649 6.46386 28.7708 6.3845 28.7708 6.30235V6.28985H28.7839H28.8669L28.8694 6.29878C28.8907 6.371 28.9461 6.3714 29.0239 6.37259L29.0393 6.37299H30.6083C30.6922 6.37142 30.7535 6.37021 30.7588 6.29563L30.7597 6.28194L30.774 6.28473L30.8602 6.29743L30.8579 6.30993C30.8455 6.38652 30.8339 6.4639 30.8246 6.54069C30.8185 6.61688 30.8185 6.69446 30.8185 6.77144V6.78037L30.8099 6.78354L30.7021 6.82045L30.7015 6.80376C30.6937 6.69624 30.6817 6.54067 30.4897 6.54067H30.0042V8.05079C30.0074 8.26666 30.0982 8.28154 30.2428 8.28432H30.3141V8.29662V8.39503L30.301 8.39505Z" fill="#211E1F"/>
<path d="M30.958 8.29662H31.0006C31.1104 8.29662 31.2253 8.28275 31.2253 8.13373V6.63452C31.2253 6.48529 31.1104 6.47123 31.0006 6.47123H30.958V6.38531C31.0767 6.38531 31.2588 6.39662 31.4074 6.39662C31.56 6.39662 31.7424 6.38531 31.8853 6.38531V6.47123H31.8427C31.7333 6.47123 31.6174 6.48531 31.6174 6.63452V8.13373C31.6174 8.28275 31.7333 8.29662 31.8427 8.29662H31.8853V8.38295C31.7392 8.38295 31.5567 8.37164 31.4051 8.37164C31.2559 8.37164 31.0767 8.38295 30.958 8.38295V8.29662Z" fill="#211E1F"/>
<path d="M31.8849 8.39505C31.738 8.39505 31.5561 8.38333 31.4045 8.38333C31.2559 8.38333 31.0763 8.39505 30.9576 8.39505H30.9443V8.38295V8.29664V8.28434H30.9576H31.0002C31.11 8.28275 31.2108 8.27382 31.2112 8.13375V6.63452C31.2108 6.49484 31.11 6.48529 31.0002 6.48333H30.9443V6.47125V6.37303H30.9576C31.0763 6.37303 31.2588 6.38394 31.407 6.38394C31.5586 6.38394 31.7409 6.37303 31.8849 6.37303H31.8978V6.38531V6.48333H31.8849H31.8423C31.7312 6.48531 31.6315 6.49484 31.63 6.63452V8.13375C31.6315 8.27382 31.7312 8.28275 31.8423 8.28434H31.8978V8.29664V8.39505H31.8849ZM31.8712 8.37005V8.30952H31.8423C31.7333 8.30952 31.6043 8.29148 31.6043 8.13375V6.63452C31.6043 6.47639 31.7333 6.45853 31.8423 6.45853H31.8712V6.39781C31.7308 6.39861 31.5552 6.40892 31.407 6.40892C31.263 6.40892 31.0887 6.39861 30.9709 6.39781V6.45853H31.0002C31.1083 6.45853 31.2378 6.47639 31.2382 6.63452V8.13375C31.2378 8.29146 31.1083 8.30952 31.0002 8.30952H30.9709V8.37005C31.0881 8.36884 31.2601 8.35912 31.4045 8.35912C31.5519 8.35912 31.7279 8.36946 31.8712 8.37005H31.8712Z" fill="#211E1F"/>
<path d="M33.0968 6.34245C33.7448 6.34245 34.2612 6.72063 34.2612 7.32995C34.2612 7.98831 33.7597 8.42579 33.1126 8.42579C32.4676 8.42579 31.9756 8.01366 31.9756 7.39841C31.9756 6.80337 32.4646 6.34245 33.0968 6.34245ZM33.1427 8.29979C33.7326 8.29979 33.8352 7.81011 33.8352 7.39285C33.8352 6.9746 33.5958 6.46825 33.0909 6.46825C32.5589 6.46825 32.401 6.91468 32.401 7.29781C32.401 7.81011 32.6501 8.29979 33.1427 8.29979Z" fill="#211E1F"/>
<path d="M31.9619 7.39841C31.9632 6.79642 32.4582 6.33075 33.0966 6.32996V6.34246V6.35454C32.4719 6.35454 31.9883 6.80952 31.9877 7.39839C31.9891 8.00672 32.4742 8.41267 33.1125 8.41287C33.7533 8.41267 34.2476 7.98132 34.2486 7.32936C34.248 6.72777 33.7394 6.35533 33.0967 6.35454V6.34246V6.32996C33.7497 6.33035 34.2731 6.7123 34.2744 7.32936C34.2738 7.99462 33.7657 8.4367 33.1125 8.43787C32.4623 8.43668 31.9632 8.02041 31.962 7.39839H31.9619V7.39841ZM32.3878 7.29781C32.3886 6.91291 32.5484 6.45535 33.091 6.45535C33.607 6.45656 33.8479 6.97244 33.8488 7.39285C33.8479 7.81011 33.7436 8.31172 33.1428 8.31172V8.29982V8.28749C33.7209 8.28672 33.821 7.81011 33.8224 7.39285C33.8224 6.97799 33.5851 6.48136 33.091 6.48075C32.5695 6.48134 32.4151 6.91666 32.4141 7.29781C32.4145 7.80753 32.6614 8.2863 33.1428 8.28749V8.29982V8.31172C32.6382 8.31111 32.3886 7.81311 32.3878 7.29781Z" fill="#211E1F"/>
<path d="M36.31 7.81885L36.3161 7.8133V6.74028C36.3161 6.50536 36.1424 6.47123 36.0511 6.47123H35.9854V6.3853C36.1279 6.3853 36.2676 6.39661 36.4101 6.39661C36.5351 6.39661 36.6597 6.3853 36.7845 6.3853V6.47123H36.7385C36.6112 6.47123 36.4681 6.49403 36.4681 6.83453V8.13691C36.4681 8.23693 36.4711 8.33691 36.4864 8.42562H36.3711L34.8053 6.78296V7.96212C34.8053 8.21113 34.8567 8.29665 35.0907 8.29665H35.1428V8.38296C35.0119 8.38296 34.8814 8.37165 34.7507 8.37165C34.6139 8.37165 34.4737 8.38296 34.3369 8.38296V8.29665H34.3797C34.5899 8.29665 34.6529 8.1625 34.6529 7.93375V6.72839C34.6529 6.56828 34.5137 6.47125 34.3765 6.47125H34.3369V6.38534C34.4524 6.38534 34.5711 6.39663 34.6864 6.39663C34.7777 6.39663 34.8656 6.38534 34.9571 6.38534L36.31 7.81885Z" fill="#211E1F"/>
<path d="M36.4868 8.43789L36.361 8.43373L34.8186 6.81527V7.96212C34.8219 8.21093 34.8622 8.28136 35.0905 8.28394H35.1563V8.29684V8.39506H35.143C35.0112 8.39506 34.8808 8.38355 34.7509 8.38355C34.6145 8.38355 34.475 8.39506 34.3369 8.39506H34.3242V8.38275V8.28394H34.3369H34.3799C34.5804 8.28337 34.6379 8.16194 34.6404 7.93375V6.72839C34.64 6.57601 34.5074 6.48355 34.3767 6.48335H34.3242V6.47125V6.37303H34.3369C34.4535 6.37303 34.5719 6.38396 34.6866 6.38396C34.7768 6.38396 34.8645 6.37303 34.9674 6.37722L36.303 7.79289V6.74051C36.3021 6.51275 36.1402 6.48535 36.0513 6.48337H35.9714V6.47129V6.37307H35.9851C36.1282 6.37307 36.2684 6.38398 36.4098 6.38398C36.5346 6.38398 36.6586 6.37307 36.7846 6.37307H36.7977V6.38535V6.48337H36.7846H36.7386C36.6136 6.48674 36.4843 6.49746 36.4817 6.83456V8.13674C36.4817 8.23674 36.484 8.33652 36.4988 8.42402L36.5013 8.43791H36.4868V8.43789ZM36.3714 8.41289H36.4708C36.4576 8.32698 36.4552 8.23174 36.4552 8.1367V6.83452C36.4552 6.49047 36.6085 6.45932 36.7388 6.45833H36.7716V6.39781C36.6517 6.39861 36.5316 6.40892 36.41 6.40892C36.2716 6.40892 36.1357 6.39861 35.998 6.39781V6.45833H36.0513C36.1456 6.45932 36.329 6.49843 36.329 6.74047L36.3256 7.82182L36.3199 7.82779L36.3102 7.8369L34.9573 6.39783C34.8678 6.39783 34.779 6.40894 34.6867 6.40894C34.5747 6.40894 34.4607 6.39863 34.35 6.39783V6.45835H34.3768C34.5195 6.45934 34.6664 6.56073 34.6664 6.72839V7.93375C34.6664 8.16252 34.5986 8.30894 34.38 8.30974L34.35 8.30952V8.37006C34.482 8.36946 34.6173 8.35914 34.751 8.35914C34.8776 8.35914 35.0035 8.36946 35.1298 8.37006V8.30974H35.0906C34.852 8.30952 34.7923 8.21093 34.7923 7.9621V6.75079L36.3714 8.41289ZM36.3102 7.81865L36.3199 7.81051L36.3102 7.81865ZM36.303 7.81329V7.81228L36.3005 7.81012L36.303 7.81329Z" fill="#211E1F"/>
<path d="M37.2733 7.97361C37.2436 8.07064 37.2067 8.14563 37.2067 8.19663C37.2067 8.28274 37.3347 8.29663 37.4344 8.29663H37.4683V8.38294C37.3467 8.37677 37.2219 8.37163 37.1003 8.37163C36.9904 8.37163 36.8814 8.37681 36.7725 8.38294V8.29663H36.7897C36.9088 8.29663 37.0096 8.23093 37.0545 8.11052L37.5415 6.7974C37.5807 6.69145 37.6357 6.54839 37.6534 6.44226C37.7508 6.41111 37.8722 6.35397 37.9306 6.31944C37.9392 6.31649 37.9454 6.31349 37.9546 6.31349C37.9637 6.31349 37.9694 6.31349 37.9755 6.32242C37.9848 6.34504 37.9943 6.37103 38.0033 6.39385L38.5624 7.89067C38.5988 7.99067 38.6351 8.09643 38.6751 8.18254C38.7116 8.2627 38.7757 8.29663 38.8756 8.29663H38.8942V8.38294C38.7572 8.37679 38.6203 8.37165 38.4743 8.37165C38.3256 8.37165 38.1735 8.37681 38.0183 8.38294V8.29663H38.0521C38.1214 8.29663 38.2407 8.28552 38.2407 8.21389C38.2407 8.17679 38.2131 8.0996 38.1791 8.00774L38.0611 7.67579H37.371L37.2733 7.97361ZM37.7177 6.70575H37.7116L37.4285 7.51567H37.9974L37.7177 6.70575Z" fill="#211E1F"/>
<path d="M38.8925 8.39505C38.7557 8.3899 38.6191 8.38355 38.4739 8.38355C38.3257 8.38355 38.1735 8.3899 38.0183 8.39505L38.0049 8.39585V8.38275V8.28434H38.0179H38.051C38.1218 8.28434 38.2266 8.26886 38.2268 8.2139C38.2274 8.18134 38.2 8.10339 38.1661 8.01172L38.0506 7.68811H37.3796L37.2856 7.97718C37.2553 8.07519 37.219 8.15039 37.2196 8.19664C37.2196 8.26688 37.3334 8.28434 37.434 8.28434H37.4804V8.29664V8.39585L37.4669 8.39505C37.3452 8.3899 37.2209 8.38355 37.0999 8.38355C36.9909 8.38355 36.8817 8.3899 36.7721 8.39505L36.7588 8.39585V8.38275V8.28434H36.7721H36.7894C36.9028 8.28392 36.9976 8.22264 37.0419 8.10656L37.5284 6.79328C37.5672 6.68713 37.622 6.54447 37.649 6.43078C37.7445 6.39963 37.8665 6.34248 37.9256 6.30754C37.9336 6.30496 37.9418 6.30159 37.9542 6.30159C37.9622 6.3008 37.9778 6.30258 37.9875 6.31826C37.9966 6.3407 38.0054 6.36667 38.0156 6.38989L38.5746 7.88652C38.6109 7.98692 38.6473 8.09268 38.6867 8.17779C38.7223 8.25359 38.7778 8.28355 38.8748 8.28434H38.9064V8.29664V8.39585L38.8925 8.39505ZM38.031 8.36984C38.1813 8.36448 38.3293 8.35892 38.4739 8.35892C38.6153 8.35892 38.7479 8.36448 38.8803 8.36944L38.8798 8.3097H38.8748C38.7719 8.30992 38.7001 8.27182 38.6623 8.1875C38.6223 8.10059 38.586 7.99444 38.5497 7.89462L37.9903 6.39782C37.9812 6.375 37.9719 6.34901 37.9646 6.32957C37.962 6.326 37.9623 6.326 37.9599 6.326H37.9542C37.9479 6.326 37.9445 6.32798 37.9371 6.32996C37.8779 6.36508 37.756 6.42221 37.6661 6.44425C37.6473 6.55258 37.5921 6.69524 37.5529 6.80139L37.0662 8.11488C37.02 8.23908 36.9137 8.30992 36.7894 8.3097H36.7849V8.36944C36.8895 8.36448 36.994 8.35892 37.0999 8.35892C37.2177 8.35892 37.3376 8.36448 37.4546 8.36944V8.3097H37.434C37.3351 8.30851 37.1964 8.29841 37.1928 8.19662C37.1935 8.13988 37.2312 8.06706 37.2605 7.97004L37.2729 7.97379L37.2605 7.96962L37.3606 7.66367H38.0695L38.1914 8.00375C38.2249 8.09583 38.2525 8.17182 38.2525 8.21389C38.248 8.30178 38.1205 8.30791 38.051 8.3097H38.0309V8.36984H38.031ZM37.41 7.5278L37.7015 6.69326H37.7107H37.7173V6.70576L37.7141 6.70635L37.7173 6.70576V6.69326H37.7268L38.0141 7.5278H37.41ZM37.4464 7.50317H37.9781L37.7137 6.73671L37.4464 7.50317ZM37.7047 6.70935L37.7107 6.70717L37.7047 6.70935Z" fill="#211E1F"/>
<path d="M39.659 8.10238C39.659 8.21688 39.7433 8.25099 39.8407 8.26269C39.9653 8.27142 40.1021 8.27142 40.2425 8.25694C40.3698 8.24248 40.4795 8.17383 40.5338 8.10238C40.5823 8.03928 40.6097 7.95912 40.628 7.89623H40.7162C40.6829 8.05932 40.6403 8.22004 40.6036 8.38293C40.3367 8.38293 40.0686 8.37162 39.8015 8.37162C39.5336 8.37162 39.2665 8.38293 38.999 8.38293V8.2966H39.0407C39.1508 8.2966 39.2697 8.28273 39.2697 8.10515V6.63452C39.2697 6.48529 39.1508 6.47123 39.0407 6.47123H38.999V6.38531C39.1596 6.38531 39.3179 6.39662 39.4788 6.39662C39.6343 6.39662 39.7861 6.38531 39.9413 6.38531V6.47123H39.8647C39.7497 6.47123 39.659 6.4744 39.659 6.62559V8.10238Z" fill="#211E1F"/>
<path d="M40.6044 8.39507C40.3365 8.39507 40.069 8.38356 39.8023 8.38356C39.5346 8.38356 39.2671 8.39507 38.9992 8.39507H38.9863V8.38277V8.28435H38.9992H39.0416C39.1518 8.28197 39.256 8.27483 39.2572 8.10519V6.63397C39.2559 6.49489 39.1524 6.48536 39.0416 6.48336H38.9863V6.47128V6.37306H38.9992C39.1609 6.37306 39.3192 6.38398 39.4798 6.38398C39.6341 6.38398 39.7859 6.37306 39.9421 6.37306H39.9546V6.38536V6.48336H39.9421H39.8658C39.748 6.48653 39.6746 6.48138 39.6723 6.62564V8.10243C39.6731 8.20898 39.7473 8.23775 39.8422 8.25025C39.8959 8.25382 39.9522 8.256 40.0108 8.256C40.0852 8.256 40.1626 8.25263 40.241 8.24469C40.365 8.23102 40.4716 8.16374 40.5239 8.09548C40.5707 8.03437 40.5977 7.9558 40.6158 7.8933L40.6186 7.8838H40.6287H40.733L40.7303 7.89888C40.6959 8.06257 40.6542 8.22249 40.6173 8.38538L40.6148 8.39511H40.6045H40.6044V8.39507ZM40.5934 8.37007C40.6286 8.21491 40.6685 8.0631 40.7012 7.90834H40.6388C40.6198 7.97064 40.5928 8.04743 40.545 8.10993C40.4883 8.18413 40.3757 8.25398 40.2439 8.26925C40.1643 8.27699 40.0854 8.28096 40.0108 8.28096C39.952 8.28096 39.8949 8.27838 39.8398 8.27479C39.741 8.26447 39.6451 8.22479 39.6455 8.10239V6.6256C39.6455 6.46667 39.7523 6.45854 39.8658 6.45854H39.9286V6.39782C39.7787 6.39862 39.6312 6.40911 39.4798 6.40911C39.3223 6.40911 39.1684 6.39862 39.0124 6.39782V6.45854H39.0416C39.1501 6.45854 39.2829 6.4764 39.2829 6.63394V8.10517C39.2829 8.29029 39.1507 8.30953 39.0416 8.30953H39.0124V8.37005C39.2753 8.36985 39.5382 8.35913 39.8023 8.35913C40.0665 8.35913 40.3304 8.36985 40.5934 8.37007Z" fill="#211E1F"/>
<path d="M40.6796 6.30397C40.8627 6.30397 40.9995 6.43651 40.9995 6.60635C40.9995 6.7754 40.8627 6.90675 40.6796 6.90675C40.4964 6.90675 40.3594 6.7754 40.3594 6.60635C40.3594 6.43653 40.4964 6.30397 40.6796 6.30397ZM40.6796 6.8506C40.8227 6.8506 40.9327 6.73552 40.9327 6.60635C40.9327 6.47639 40.8244 6.36032 40.6796 6.36032C40.5356 6.36032 40.4256 6.47641 40.4256 6.60635C40.4256 6.73552 40.5356 6.8506 40.6796 6.8506ZM40.5202 6.76508V6.7502C40.5596 6.74504 40.5668 6.74623 40.5668 6.72322V6.5002C40.5668 6.46887 40.5632 6.45816 40.5217 6.45972V6.44445H40.6854C40.7419 6.44445 40.7936 6.46964 40.7936 6.52441C40.7936 6.56925 40.7619 6.60238 40.7179 6.61528L40.7704 6.68431C40.795 6.71566 40.8226 6.74504 40.841 6.75534V6.76506H40.7786C40.7487 6.76506 40.7225 6.70574 40.6635 6.62617H40.6281V6.72637C40.6281 6.74621 40.6355 6.74502 40.6749 6.75018V6.76506H40.5202V6.76508ZM40.6281 6.60635H40.6658C40.7071 6.60635 40.7265 6.57679 40.7265 6.52937C40.7265 6.48135 40.6966 6.46447 40.6637 6.46447H40.6281V6.60635Z" fill="#211E1F"/>
<path d="M7.85619 9.99998C10.7599 10.0131 13.4103 7.77099 13.4103 5.04343C13.4103 2.06069 10.7599 -0.00102222 7.85619 -3.01597e-05H5.35719C2.41868 -0.00102222 0 2.0613 0 5.04343C0 7.77158 2.41868 10.0131 5.35719 9.99998H7.85619Z" fill="#0079BE"/>
<path d="M5.36942 0.4133C2.68429 0.414093 0.508445 2.4627 0.507812 4.99109C0.508445 7.51905 2.68427 9.56746 5.36942 9.56825C8.05519 9.56746 10.2315 7.51905 10.2319 4.99109C10.2315 2.4627 8.05519 0.414093 5.36942 0.4133ZM2.28778 4.99109C2.29031 3.75558 3.1101 2.70201 4.26611 2.28334V7.69821C3.1101 7.27978 2.29029 6.22679 2.28778 4.99109ZM6.47231 7.6994V2.28316C7.62874 2.70082 8.4498 3.75498 8.4519 4.99109C8.4498 6.22758 7.62874 7.28095 6.47231 7.6994Z" fill="white"/>
<path d="M15.1139 2.15139C15.1139 1.67835 14.8519 1.7095 14.6006 1.70436V1.56766C14.8184 1.57778 15.0416 1.57778 15.2598 1.57778C15.4944 1.57778 15.8129 1.56766 16.2265 1.56766C17.673 1.56766 18.4607 2.47718 18.4607 3.40851C18.4607 3.92934 18.137 5.23867 16.1592 5.23867C15.8745 5.23867 15.6116 5.22833 15.3491 5.22833C15.0979 5.22833 14.8519 5.23351 14.6006 5.23867V5.10216C14.9356 5.0704 15.0979 5.0599 15.1139 4.70216V2.15139H15.1139ZM15.6616 4.61823C15.6616 5.02319 15.9691 5.07042 16.2427 5.07042C17.4498 5.07042 17.8461 4.21307 17.8461 3.42934C17.8461 2.44621 17.1755 1.73629 16.0975 1.73629C15.8682 1.73629 15.7628 1.75176 15.6616 1.75734L15.6616 4.61823Z" fill="#211E1F"/>
<path d="M18.6562 5.1022H18.7621C18.9183 5.1022 19.0302 5.1022 19.0302 4.92817V3.50319C19.0302 3.27206 18.9465 3.2399 18.7397 3.13534V3.05101C19.0022 2.9768 19.3155 2.8776 19.3374 2.86172C19.3768 2.84069 19.4101 2.83514 19.4381 2.83514C19.4658 2.83514 19.4773 2.86688 19.4773 2.90914V4.92817C19.4773 5.1022 19.6002 5.1022 19.7566 5.1022H19.8515V5.23891C19.6613 5.23891 19.4657 5.22841 19.2651 5.22841C19.064 5.22841 18.8626 5.23357 18.6563 5.23891V5.1022H18.6562ZM19.2539 2.02539C19.1084 2.02539 18.9803 1.89922 18.9803 1.7625C18.9803 1.63075 19.1143 1.50952 19.2539 1.50952C19.3987 1.50952 19.5277 1.62045 19.5277 1.7625C19.5277 1.90456 19.4044 2.02539 19.2539 2.02539Z" fill="#211E1F"/>
<path d="M20.3814 3.53455C20.3814 3.3401 20.3196 3.28772 20.0576 3.18772V3.08794C20.2977 3.01433 20.5265 2.94588 20.7948 2.83516C20.8115 2.83516 20.8279 2.84588 20.8279 2.88774V3.22979C21.1468 3.01433 21.4207 2.83514 21.7954 2.83514C22.2697 2.83514 22.4373 3.16131 22.4373 3.57143V4.9282C22.4373 5.10221 22.5602 5.10221 22.7168 5.10221H22.8174V5.23891C22.6213 5.23891 22.4259 5.22842 22.2253 5.22842C22.0239 5.22842 21.8226 5.23358 21.6217 5.23891V5.10221H21.7221C21.8789 5.10221 21.99 5.10221 21.99 4.9282V3.56647C21.99 3.26628 21.7954 3.11925 21.4765 3.11925C21.298 3.11925 21.0129 3.25598 20.8279 3.37183V4.92816C20.8279 5.10219 20.9514 5.10219 21.108 5.10219H21.2084V5.2389C21.0129 5.2389 20.8171 5.22838 20.616 5.22838C20.4151 5.22838 20.2136 5.23356 20.0127 5.2389V5.10219H20.1135C20.2699 5.10219 20.3814 5.10219 20.3814 4.92816V3.53455H20.3814Z" fill="#211E1F"/>
<path d="M23.243 3.7873C23.2314 3.83474 23.2314 3.91349 23.243 4.09246C23.2759 4.59186 23.6176 5.002 24.0639 5.002C24.3714 5.002 24.6121 4.84426 24.8185 4.64982L24.8965 4.72363C24.6394 5.04426 24.321 5.31765 23.8632 5.31765C22.9747 5.31765 22.7959 4.50753 22.7959 4.17124C22.7959 3.14027 23.5333 2.83511 23.9241 2.83511C24.3769 2.83511 24.8632 3.10319 24.8685 3.66071C24.8685 3.69265 24.8685 3.7238 24.8632 3.75575L24.8126 3.7873H23.243ZM24.2321 3.61886C24.3714 3.61886 24.3879 3.55041 24.3879 3.48751C24.3879 3.21924 24.2148 3.00357 23.9018 3.00357C23.5613 3.00357 23.3267 3.23988 23.2597 3.61886H24.2321Z" fill="#211E1F"/>
<path d="M24.9971 5.1022H25.148C25.3039 5.1022 25.4157 5.1022 25.4157 4.92817V3.45059C25.4157 3.28769 25.2093 3.25595 25.1252 3.21388V3.13531C25.5331 2.97202 25.7568 2.83511 25.8076 2.83511C25.8407 2.83511 25.8571 2.85099 25.8571 2.90376V3.37698H25.8689C26.0082 3.17202 26.2433 2.83511 26.5837 2.83511C26.7235 2.83511 26.902 2.9244 26.902 3.11388C26.902 3.25595 26.7962 3.38253 26.6398 3.38253C26.4659 3.38253 26.4659 3.25595 26.2707 3.25595C26.1757 3.25595 25.863 3.37698 25.863 3.69265V4.92817C25.863 5.10218 25.9745 5.10218 26.1312 5.10218H26.4438V5.2389C26.1364 5.23353 25.9027 5.22839 25.6619 5.22839C25.433 5.22839 25.1982 5.23355 24.9971 5.2389V5.1022H24.9971Z" fill="#211E1F"/>
<path d="M27.1477 4.50754C27.2204 4.85477 27.4436 5.14943 27.8517 5.14943C28.1806 5.14943 28.3036 4.96014 28.3036 4.77602C28.3036 4.15538 27.0861 4.35518 27.0861 3.50856C27.0861 3.21391 27.3378 2.83514 27.952 2.83514C28.1306 2.83514 28.3707 2.88276 28.5884 2.98812L28.6281 3.52405H28.4993C28.4436 3.19308 28.2482 3.00362 27.8903 3.00362C27.6668 3.00362 27.4548 3.12467 27.4548 3.35064C27.4548 3.96651 28.7508 3.77663 28.7508 4.60223C28.7508 4.94925 28.4546 5.3177 27.7897 5.3177C27.5663 5.3177 27.3038 5.24409 27.1084 5.13913L27.0469 4.53419L27.1477 4.50754Z" fill="#211E1F"/>
<path d="M33.7957 2.51965H33.6564C33.5502 1.90457 33.0864 1.65715 32.461 1.65715C31.818 1.65715 30.8851 2.06189 30.8851 3.32401C30.8851 4.38711 31.6901 5.14939 32.5501 5.14939C33.103 5.14939 33.5615 4.79185 33.6732 4.23949L33.8014 4.27084L33.6732 5.03868C33.4386 5.17578 32.8073 5.31767 32.4382 5.31767C31.1312 5.31767 30.3047 4.52344 30.3047 3.34008C30.3047 2.26191 31.3268 1.48849 32.4217 1.48849C32.8741 1.48849 33.3098 1.6258 33.7401 1.76786L33.7957 2.51965Z" fill="#211E1F"/>
<path d="M33.9971 5.1022H34.1029C34.2596 5.1022 34.3717 5.1022 34.3717 4.92817V1.99922C34.3717 1.65715 34.2878 1.64662 34.0753 1.58888V1.50475C34.2987 1.43652 34.5334 1.34166 34.6508 1.27838C34.7117 1.24704 34.7568 1.22043 34.7732 1.22043C34.8074 1.22043 34.8186 1.25219 34.8186 1.29444V4.92817C34.8186 5.1022 34.9413 5.1022 35.0979 5.1022H35.1921V5.2389C35.003 5.2389 34.8074 5.22838 34.6061 5.22838C34.4052 5.22838 34.2041 5.23356 33.9971 5.2389V5.1022H33.9971Z" fill="#211E1F"/>
<path d="M37.5846 4.94922C37.5846 5.04426 37.6458 5.04942 37.7406 5.04942C37.8079 5.04942 37.8913 5.04426 37.9643 5.04426V5.15498C37.7238 5.17581 37.2657 5.28633 37.1594 5.31768L37.1314 5.30178V4.87621C36.7967 5.13373 36.5393 5.31768 36.1423 5.31768C35.8407 5.31768 35.5279 5.13373 35.5279 4.69226V3.34544C35.5279 3.20873 35.5058 3.07716 35.1934 3.05099V2.95099C35.3947 2.94583 35.8407 2.91427 35.9137 2.91427C35.9756 2.91427 35.9756 2.95099 35.9756 3.06667V4.42319C35.9756 4.58135 35.9756 5.03351 36.4613 5.03351C36.6512 5.03351 36.9025 4.8968 37.1369 4.71327V3.2978C37.1369 3.19304 36.869 3.1353 36.6683 3.0825V2.98786C37.1704 2.95611 37.4839 2.91425 37.5393 2.91425C37.5846 2.91425 37.5846 2.95095 37.5846 3.00909V4.94922H37.5846Z" fill="#211E1F"/>
<path d="M38.6955 3.2139C38.9187 3.03511 39.2203 2.83513 39.5279 2.83513C40.1761 2.83513 40.5667 3.36688 40.5667 3.93967C40.5667 4.62858 40.0306 5.31765 39.2313 5.31765C38.8181 5.31765 38.6004 5.19126 38.4549 5.1337L38.2875 5.25434L38.1706 5.19682C38.2201 4.8865 38.2486 4.58134 38.2486 4.26071V1.9992C38.2486 1.65715 38.1642 1.64662 37.9521 1.58888V1.50475C38.1762 1.43652 38.4102 1.34166 38.5276 1.27837C38.5892 1.24702 38.6337 1.22043 38.651 1.22043C38.6843 1.22043 38.6954 1.25219 38.6954 1.29444V3.21388H38.6955V3.2139ZM38.6955 4.64426C38.6955 4.84426 38.8964 5.18116 39.2707 5.18116C39.8685 5.18116 40.1198 4.62858 40.1198 4.16035C40.1198 3.59249 39.6622 3.11928 39.2262 3.11928C39.019 3.11928 38.8462 3.24567 38.6955 3.36688V4.64426H38.6955Z" fill="#211E1F"/>
<path d="M14.5938 8.29662H14.6365C14.7457 8.29662 14.8613 8.28275 14.8613 8.13373V6.63452C14.8613 6.48529 14.7457 6.47123 14.6365 6.47123H14.5938V6.38531C14.7124 6.38531 14.8948 6.39662 15.0442 6.39662C15.196 6.39662 15.3781 6.38531 15.521 6.38531V6.47123H15.4783C15.3693 6.47123 15.2536 6.48531 15.2536 6.63452V8.13373C15.2536 8.28275 15.3693 8.29662 15.4783 8.29662H15.521V8.38295C15.3752 8.38295 15.1924 8.37164 15.0408 8.37164C14.8918 8.37164 14.7124 8.38295 14.5938 8.38295V8.29662Z" fill="#211E1F"/>
<path d="M15.5204 8.39506C15.3735 8.39506 15.1914 8.38355 15.04 8.38355C14.8914 8.38355 14.7127 8.39506 14.5931 8.39506H14.5801V8.38276V8.29685V8.28435H14.5931H14.6357C14.746 8.28197 14.8463 8.27363 14.8474 8.13375V6.63452C14.8463 6.49464 14.746 6.4853 14.6357 6.48333H14.5801V6.47125V6.37262H14.5931C14.7127 6.37262 14.8948 6.38393 15.0434 6.38393C15.1947 6.38393 15.3767 6.37262 15.5204 6.37262H15.5339V6.38571V6.48333H15.5204H15.4778C15.3676 6.48532 15.2666 6.49464 15.266 6.63452V8.13375C15.2666 8.27363 15.3676 8.28197 15.4778 8.28435H15.5339V8.29685V8.39506H15.5204ZM15.5074 8.37064V8.30952H15.4779C15.3693 8.30952 15.2401 8.29187 15.2394 8.13375V6.63452C15.2401 6.47639 15.3693 6.45853 15.4779 6.45853H15.5074V6.39782C15.367 6.39782 15.1909 6.40893 15.0434 6.40893C14.899 6.40893 14.7242 6.39861 14.6066 6.39782V6.45853H14.6357C14.7441 6.45853 14.8737 6.47639 14.8737 6.63452V8.13375C14.8737 8.29189 14.7441 8.30952 14.6357 8.30952H14.6066V8.37064C14.7242 8.36945 14.896 8.35913 15.04 8.35913C15.188 8.35913 15.364 8.36984 15.5074 8.37064Z" fill="#211E1F"/>
<path d="M17.6098 7.81885L17.6159 7.8133V6.74028C17.6159 6.50536 17.4424 6.47123 17.3514 6.47123H17.2843V6.3853C17.4274 6.3853 17.5672 6.39661 17.7099 6.39661C17.8345 6.39661 17.9597 6.3853 18.0841 6.3853V6.47123H18.0385C17.9106 6.47123 17.7677 6.49403 17.7677 6.83453V8.13691C17.7677 8.23693 17.7708 8.33691 17.7858 8.42562H17.6701L16.1049 6.78296V7.96212C16.1049 8.21113 16.1561 8.29665 16.3905 8.29665H16.4419V8.38296C16.3115 8.38296 16.181 8.37165 16.0501 8.37165C15.9137 8.37165 15.7737 8.38296 15.6367 8.38296V8.29665H15.6793C15.889 8.29665 15.9527 8.1625 15.9527 7.93375V6.72839C15.9527 6.56828 15.8125 6.47125 15.6764 6.47125H15.6367V6.38534C15.7522 6.38534 15.8707 6.39663 15.986 6.39663C16.0773 6.39663 16.1656 6.38534 16.2567 6.38534L17.6098 7.81885Z" fill="#211E1F"/>
<path d="M17.7847 8.43811L17.6593 8.43373L16.1166 6.81529V7.96212C16.1202 8.21093 16.1605 8.28158 16.3894 8.28434H16.4545V8.29664V8.39506H16.4411C16.3095 8.39506 16.1786 8.38355 16.049 8.38355C15.9128 8.38355 15.7732 8.39506 15.6354 8.39506H15.6221V8.38276V8.28434H15.6354H15.6782C15.8791 8.28335 15.9364 8.16192 15.9387 7.93375V6.72859C15.9383 6.57621 15.8055 6.48375 15.6752 6.48335H15.6221V6.47065V6.37303H15.6353C15.7515 6.37303 15.8706 6.38394 15.9846 6.38394C16.0751 6.38394 16.1632 6.37303 16.2656 6.3772L17.6017 7.79289V6.74051C17.6 6.51273 17.4387 6.48535 17.3502 6.48335H17.2697V6.47065V6.37303H17.2831C17.4267 6.37303 17.5667 6.38394 17.7087 6.38394C17.8325 6.38394 17.9571 6.37303 18.0827 6.37303H18.096V6.38533V6.48333H18.0827H18.0374C17.912 6.48672 17.7832 6.49702 17.7796 6.83452V8.1367C17.7796 8.2367 17.7827 8.3367 17.7975 8.42341L17.8005 8.43809H17.7847V8.43811ZM17.6692 8.41289H17.7697C17.756 8.32698 17.7537 8.23174 17.7537 8.1367V6.83452C17.7537 6.49107 17.9065 6.45855 18.0374 6.45855H18.0695V6.39781C17.9497 6.39861 17.8296 6.40892 17.7088 6.40892C17.5697 6.40892 17.4344 6.39861 17.2967 6.39781L17.2965 6.45855H17.3503C17.4436 6.45855 17.6281 6.49781 17.6281 6.74049L17.6239 7.82182L17.6178 7.82779L17.6075 7.83672L16.2556 6.39781C16.1654 6.39781 16.0773 6.40892 15.9847 6.40892C15.8732 6.40892 15.7592 6.39861 15.6489 6.39781L15.6483 6.45853H15.6753C15.818 6.45853 15.9645 6.56111 15.9645 6.72857V7.93373C15.9645 8.16248 15.8968 8.30891 15.6782 8.3097L15.6489 8.30891V8.37061C15.7807 8.36942 15.916 8.3591 16.049 8.3591C16.1759 8.3591 16.3022 8.36944 16.4278 8.37061V8.3097H16.3895C16.1502 8.30891 16.0908 8.21091 16.0905 7.96208V6.75077L17.6692 8.41289ZM17.6087 7.81865L17.6184 7.81031L17.6087 7.81865ZM17.6017 7.81311V7.81212L17.5992 7.81012L17.6017 7.81311Z" fill="#211E1F"/>
<path d="M18.5388 6.52817C18.3105 6.52817 18.3018 6.57978 18.2563 6.78849H18.165C18.1771 6.70853 18.1922 6.62857 18.2015 6.54524C18.2137 6.46508 18.2196 6.3853 18.2196 6.30238H18.2928C18.3172 6.38829 18.3931 6.38532 18.4755 6.38532H20.0437C20.1259 6.38532 20.2018 6.38254 20.2081 6.29645L20.2806 6.30796C20.2688 6.38532 20.2565 6.46252 20.2473 6.53988C20.2418 6.61708 20.2418 6.69444 20.2418 6.77143L20.1503 6.80337C20.144 6.69762 20.1288 6.52817 19.9254 6.52817H19.4269V8.05079C19.4269 8.27143 19.5333 8.29665 19.6788 8.29665H19.7367V8.38296C19.6183 8.38296 19.4052 8.37165 19.2413 8.37165C19.059 8.37165 18.8459 8.38296 18.7272 8.38296V8.29665H18.7852C18.9528 8.29665 19.0375 8.28254 19.0375 8.05675V6.52817H18.5388Z" fill="#211E1F"/>
<path d="M19.7367 8.39505C19.617 8.39505 19.4043 8.38355 19.2409 8.38355C19.0588 8.38355 18.8461 8.39505 18.7268 8.39505H18.7141V8.38295V8.28434H18.7268H18.7848C18.9523 8.28057 19.0198 8.27859 19.0236 8.05674V6.54069H18.5383V6.52817V6.51547H19.05V8.05674C19.05 8.2863 18.9517 8.30952 18.7848 8.30972H18.7401V8.37003C18.86 8.36946 19.0645 8.35912 19.2409 8.35912C19.3995 8.35912 19.6027 8.36946 19.7228 8.37003V8.30972H19.6783C19.5314 8.30952 19.4132 8.27559 19.4132 8.05079V6.51547H19.925C20.129 6.51627 20.1556 6.67956 20.1623 6.78571L20.2279 6.76289C20.2279 6.68829 20.2283 6.61349 20.2338 6.53809C20.2426 6.46448 20.2538 6.39147 20.2652 6.31845L20.2188 6.31111C20.2047 6.39444 20.1193 6.39861 20.0428 6.39781H18.4751H18.4593C18.3878 6.39781 18.3096 6.39464 18.2824 6.3147H18.2323C18.2318 6.39387 18.2259 6.47065 18.2143 6.54682C18.2055 6.62541 18.1916 6.70101 18.1802 6.7766H18.2453C18.2854 6.57718 18.3115 6.5125 18.5383 6.51549V6.52819V6.54069C18.3136 6.54446 18.3183 6.58017 18.2687 6.79168L18.2664 6.8014H18.2559H18.1494L18.1511 6.78652C18.1633 6.70637 18.1787 6.62658 18.1878 6.54325C18.2004 6.46389 18.2063 6.38452 18.2063 6.30238V6.28988H18.2192H18.3027L18.3048 6.29881C18.3256 6.37103 18.3819 6.37142 18.4593 6.37262H18.4751H20.0428C20.1276 6.37142 20.1891 6.37023 20.1944 6.29541L20.1956 6.28192L20.2093 6.2847L20.2951 6.29742L20.2932 6.30992C20.281 6.3865 20.269 6.46389 20.2601 6.54067C20.254 6.61686 20.254 6.69424 20.254 6.77142V6.78035L20.2456 6.78353L20.1379 6.82041L20.137 6.80375C20.129 6.69621 20.117 6.54065 19.925 6.54065H19.4397V8.05077C19.4424 8.26664 19.5335 8.28152 19.6783 8.2843H19.7496V8.2966V8.39502L19.7367 8.39505Z" fill="#211E1F"/>
<path d="M20.377 8.29662H20.4197C20.529 8.29662 20.6446 8.28275 20.6446 8.13373V6.63452C20.6446 6.48529 20.529 6.47123 20.4197 6.47123H20.377V6.38531C20.562 6.38531 20.8787 6.39662 21.1335 6.39662C21.3894 6.39662 21.705 6.38531 21.9116 6.38531C21.9065 6.50813 21.9093 6.69742 21.9183 6.82303L21.8266 6.84603C21.8121 6.66014 21.7756 6.51153 21.4562 6.51153H21.034V7.26093H21.3953C21.5776 7.26093 21.6175 7.16391 21.6354 7.00897H21.7265C21.7206 7.12105 21.7174 7.23258 21.7174 7.34408C21.7174 7.45301 21.7206 7.56154 21.7265 7.67027L21.6354 7.68732C21.6175 7.51571 21.6083 7.40418 21.3983 7.40418H21.034V8.07065C21.034 8.25696 21.2096 8.25696 21.4044 8.25696C21.7693 8.25696 21.9301 8.23375 22.0214 7.90795L22.1066 7.9276C22.0667 8.07958 22.0305 8.23097 22.0035 8.38295C21.8087 8.38295 21.459 8.37164 21.1858 8.37164C20.9118 8.37164 20.5503 8.38295 20.377 8.38295V8.29662Z" fill="#211E1F"/>
<path d="M22.0034 8.39505C21.8082 8.39505 21.4587 8.38333 21.1857 8.38333C20.9119 8.38333 20.5506 8.39505 20.3771 8.39505H20.3643V8.38295V8.29664V8.28434H20.3771H20.4197C20.5299 8.28275 20.6298 8.27363 20.6313 8.13375V6.63452C20.6299 6.49484 20.5299 6.48551 20.4197 6.48333H20.3643V6.47125V6.37303H20.3771C20.5626 6.37303 20.8788 6.38394 21.1336 6.38394C21.3893 6.38394 21.7047 6.37303 21.9117 6.37303H21.9254L21.9247 6.38573C21.9226 6.42879 21.9218 6.47956 21.9218 6.53355C21.9218 6.63254 21.9247 6.74067 21.9309 6.82224L21.9313 6.83256L21.9212 6.83535L21.8143 6.86154L21.8137 6.84686C21.7958 6.66115 21.7694 6.52642 21.4564 6.52365H21.0468L21.0464 7.24805H21.3955C21.5705 7.24646 21.6018 7.16214 21.6225 7.00797L21.6236 6.99666H21.6354H21.7402L21.74 7.00954C21.7341 7.12105 21.7302 7.23256 21.7302 7.34406C21.7302 7.4524 21.7341 7.56093 21.74 7.66986L21.7402 7.68L21.7292 7.68236L21.6236 7.7022L21.6225 7.68871C21.6017 7.5141 21.6002 7.41847 21.3982 7.41631L21.0468 7.41609V8.07065C21.0471 8.24446 21.2064 8.24347 21.4046 8.24446C21.7705 8.24248 21.9172 8.22583 22.0089 7.90438L22.0119 7.89287L22.0247 7.89506L22.1221 7.91865L22.1192 7.93057C22.08 8.08216 22.0435 8.23335 22.0163 8.38492L22.0138 8.39505H22.0034ZM21.9922 8.37005C22.0186 8.22579 22.0533 8.08097 22.0907 7.9369L22.0306 7.92261C21.9395 8.24287 21.7633 8.27142 21.4045 8.26926C21.2131 8.26926 21.0213 8.26926 21.0204 8.07063V7.39166H21.3982C21.6104 7.38948 21.6322 7.51011 21.6471 7.67301L21.7129 7.66013C21.707 7.55476 21.7043 7.449 21.7043 7.34404C21.7043 7.23631 21.707 7.12918 21.7129 7.02142H21.6471C21.6303 7.17043 21.5807 7.27519 21.3955 7.27321H21.0204V6.49861H21.4564C21.7726 6.4966 21.8251 6.65019 21.8386 6.83015L21.9041 6.81349C21.8989 6.73273 21.8953 6.62916 21.8953 6.53353C21.8953 6.48452 21.8965 6.43829 21.8982 6.39781C21.6917 6.39861 21.3839 6.40892 21.1337 6.40892C20.8839 6.40892 20.5763 6.39861 20.3902 6.39781V6.45853H20.4197C20.528 6.45853 20.6575 6.47639 20.6579 6.63452V8.13375C20.6575 8.29148 20.528 8.30894 20.4197 8.30974H20.3902V8.37005C20.5675 8.36984 20.9187 8.35914 21.1857 8.35914C21.4538 8.35914 21.7962 8.36984 21.9922 8.37005Z" fill="#211E1F"/>
<path d="M22.5177 6.68849C22.5177 6.47976 22.3963 6.47123 22.3017 6.47123H22.2471V6.38512C22.3444 6.38512 22.5327 6.39662 22.7182 6.39662C22.9005 6.39662 23.0466 6.38512 23.2075 6.38512C23.5902 6.38512 23.9311 6.48254 23.9311 6.88928C23.9311 7.14623 23.7488 7.30377 23.5087 7.39285L24.0283 8.125C24.1134 8.24603 24.174 8.27996 24.3232 8.2966V8.38293C24.2229 8.38293 24.1255 8.37162 24.0253 8.37162C23.9311 8.37162 23.8335 8.38293 23.7397 8.38293C23.5057 8.09385 23.3046 7.78472 23.1071 7.45535H22.9071V8.06805C22.9071 8.28869 23.0161 8.29662 23.1558 8.29662H23.2106V8.38295C23.0369 8.38295 22.8614 8.37164 22.6878 8.37164C22.5418 8.37164 22.3988 8.38295 22.2471 8.38295V8.29662H22.3017C22.4146 8.29662 22.5177 8.24861 22.5177 8.14246V6.68849ZM22.907 7.35238H23.0555C23.3596 7.35238 23.5234 7.24367 23.5234 6.90595C23.5234 6.65158 23.3504 6.48829 23.0795 6.48829C22.9882 6.48829 22.9494 6.49722 22.907 6.4998V7.35238H22.907Z" fill="#211E1F"/>
<path d="M24.3229 8.39505C24.221 8.39505 24.1243 8.38354 24.0244 8.38354C23.9316 8.38354 23.8347 8.39505 23.7286 8.39029C23.4955 8.10239 23.2956 7.79505 23.0992 7.46806H22.9196V8.06769C22.9227 8.28296 23.0147 8.28118 23.1553 8.28435H23.2233V8.29665V8.39507H23.2098C23.0361 8.39507 22.8597 8.38356 22.6871 8.38356C22.5418 8.38356 22.3993 8.39507 22.2467 8.39507H22.2334V8.38277V8.28435H22.2467H22.3013C22.4109 8.28376 22.5032 8.23892 22.5037 8.14249V6.68854C22.5014 6.48536 22.3958 6.48653 22.3013 6.48358H22.2334V6.47128V6.37267H22.2467C22.3451 6.37267 22.5328 6.38396 22.7178 6.38396C22.8993 6.38396 23.0454 6.37267 23.2073 6.37267C23.5903 6.37346 23.9432 6.47306 23.9443 6.88854C23.9443 7.14707 23.7628 7.30836 23.5281 7.39846L24.0389 8.11828C24.1239 8.23693 24.1768 8.26652 24.3248 8.28435L24.3359 8.28594V8.29665V8.39507H24.3229V8.39505ZM22.9063 7.44304H23.1142L23.1177 7.44939C23.3159 7.77816 23.5155 8.08689 23.7394 8.37062C23.8321 8.37062 23.9297 8.35892 24.0244 8.35892C24.1215 8.35892 24.2151 8.36884 24.3098 8.37023V8.30753C24.1671 8.29086 24.1003 8.25078 24.0172 8.13193L23.4883 7.38687L23.5033 7.38112C23.7411 7.29304 23.9171 7.14007 23.9173 6.88846C23.9171 6.49143 23.5895 6.39939 23.2073 6.3978C23.0469 6.3978 22.901 6.40911 22.7178 6.40911C22.5393 6.40911 22.3591 6.3986 22.2596 6.3978V6.45852H22.3013C22.3957 6.45874 22.5302 6.4734 22.5302 6.6885V8.14245C22.5302 8.25733 22.4157 8.30971 22.3013 8.30991H22.2596V8.37021C22.4059 8.36981 22.5443 8.35892 22.6871 8.35892C22.8571 8.35892 23.0285 8.36983 23.1968 8.37021V8.30991H23.1552C23.0165 8.30969 22.893 8.29344 22.893 8.06765V7.44304H22.9063H22.9063ZM22.9063 7.36447H22.893V6.48828L22.9046 6.48729C22.9461 6.48433 22.9873 6.47618 23.0792 6.47618C23.3562 6.47618 23.5362 6.64562 23.5366 6.90651C23.5357 7.24818 23.3616 7.36425 23.0551 7.36445H22.9063V7.36447ZM23.0551 7.33989C23.3561 7.33749 23.5075 7.23909 23.5107 6.90653C23.509 6.65653 23.3439 6.50138 23.0791 6.50038C22.9969 6.50038 22.9584 6.50753 22.9196 6.51072V7.33989H23.0551Z" fill="#211E1F"/>
<path d="M26.3869 7.81885L26.3924 7.8133V6.74028C26.3924 6.50536 26.2193 6.47123 26.1283 6.47123H26.0617V6.3853C26.2044 6.3853 26.3439 6.39661 26.487 6.39661C26.6118 6.39661 26.736 6.3853 26.8614 6.3853V6.47123H26.8157C26.688 6.47123 26.545 6.49403 26.545 6.83453V8.13691C26.545 8.23693 26.548 8.33691 26.5629 8.42562H26.4476L24.8823 6.78296V7.96212C24.8823 8.21113 24.9339 8.29665 25.1679 8.29665H25.2195V8.38296C25.089 8.38296 24.9581 8.37165 24.8277 8.37165C24.6904 8.37165 24.5507 8.38296 24.4141 8.38296V8.29665H24.4562C24.6662 8.29665 24.73 8.1625 24.73 7.93375V6.72839C24.73 6.56828 24.5903 6.47125 24.4537 6.47125H24.4141V6.38534C24.5292 6.38534 24.6483 6.39663 24.7636 6.39663C24.8542 6.39663 24.9427 6.38534 25.034 6.38534L26.3869 7.81885Z" fill="#211E1F"/>
<path d="M26.5631 8.43789L26.438 8.43392L24.8952 6.81529V7.96192C24.8987 8.21093 24.9388 8.28154 25.1681 8.28434H25.2324V8.29664V8.39506H25.2191C25.0876 8.39506 24.9573 8.38333 24.827 8.38333C24.6913 8.38333 24.5509 8.39506 24.4141 8.39506H24.4004V8.38295V8.28434H24.4141H24.4562C24.6569 8.28355 24.7145 8.16192 24.7164 7.93295V6.72839C24.7162 6.57599 24.5836 6.48355 24.4537 6.48333H24.4004V6.47125V6.37263H24.4141C24.53 6.37263 24.6489 6.38392 24.7636 6.38392C24.853 6.38392 24.9411 6.37263 25.0431 6.37658L26.3794 7.79287V6.74008C26.3785 6.51269 26.2166 6.48452 26.1283 6.48335H26.048V6.47125V6.37263H26.0613C26.205 6.37263 26.345 6.38392 26.4871 6.38392C26.611 6.38392 26.7356 6.37263 26.8608 6.37263H26.8741V6.38553V6.48335H26.8608H26.8157C26.6903 6.48652 26.561 6.49702 26.5579 6.83454V8.1367C26.5579 8.2367 26.5606 8.33591 26.576 8.424L26.5777 8.43789H26.5631ZM26.4477 8.41289H26.5476C26.5343 8.32698 26.5313 8.23174 26.5313 8.1367V6.83452C26.5315 6.49105 26.6854 6.45932 26.8157 6.45833H26.8475V6.39781C26.7282 6.39861 26.6079 6.40892 26.487 6.40892C26.3475 6.40892 26.2119 6.39861 26.0743 6.39781V6.45833H26.1283C26.2219 6.45932 26.4061 6.49781 26.4061 6.74008L26.4019 7.82182L26.396 7.82777L26.3868 7.8369L25.0339 6.39783C24.9436 6.39783 24.8555 6.40894 24.7636 6.40894C24.651 6.40894 24.5374 6.39863 24.4268 6.39783V6.45835H24.4537C24.5965 6.45934 24.743 6.56073 24.743 6.72839V7.93293C24.743 8.16269 24.6742 8.30892 24.4563 8.30972L24.4268 8.30952V8.37004C24.5581 8.36944 24.6936 8.35912 24.8271 8.35912C24.9546 8.35912 25.0809 8.36944 25.2065 8.37004V8.30972H25.1681C24.9287 8.30952 24.8688 8.21093 24.8684 7.9619V6.75119L26.4477 8.41289ZM26.3869 7.81865L26.3962 7.81051L26.3869 7.81865ZM26.3794 7.81329V7.81228L26.377 7.81012L26.3794 7.81329Z" fill="#211E1F"/>
<path d="M27.3505 7.97361C27.3197 8.07064 27.2831 8.14563 27.2831 8.19663C27.2831 8.28274 27.411 8.29663 27.511 8.29663H27.5449V8.38294C27.4231 8.37677 27.2989 8.37163 27.1764 8.37163C27.067 8.37163 26.9582 8.37681 26.8486 8.38294V8.29663H26.867C26.9854 8.29663 27.086 8.23093 27.1309 8.11052L27.6178 6.7974C27.657 6.69145 27.7122 6.54839 27.7306 6.44226C27.8274 6.41111 27.9492 6.35397 28.0068 6.31944C28.0162 6.31649 28.0215 6.31349 28.031 6.31349C28.0401 6.31349 28.046 6.31349 28.0527 6.32242C28.0616 6.34504 28.0704 6.37103 28.0801 6.39385L28.6394 7.89067C28.6758 7.99067 28.7118 8.09643 28.7513 8.18254C28.788 8.2627 28.8521 8.29663 28.9526 8.29663H28.9705V8.38294C28.8338 8.37679 28.6967 8.37165 28.5513 8.37165C28.4022 8.37165 28.2498 8.37681 28.0949 8.38294V8.29663H28.1286C28.1982 8.29663 28.3171 8.28552 28.3171 8.21389C28.3171 8.17679 28.2897 8.0996 28.2557 8.00774L28.1375 7.67579H27.4476L27.3505 7.97361ZM27.794 6.70575H27.7879L27.5052 7.51567H28.0733L27.794 6.70575Z" fill="#211E1F"/>
<path d="M28.9693 8.39506C28.8325 8.38931 28.6956 8.38334 28.5508 8.38334C28.4018 8.38334 28.2504 8.38931 28.0949 8.39506L28.0812 8.39586V8.38296V8.28395H28.0945H28.128C28.1984 8.28395 28.3029 8.26887 28.3029 8.21393C28.3038 8.18137 28.2764 8.1028 28.2428 8.01175L28.1271 7.68814H27.4566L27.3621 7.97721C27.3313 8.07483 27.2949 8.15042 27.2951 8.19705C27.2961 8.26691 27.4098 8.28395 27.5105 8.28395H27.5573V8.29685V8.39586L27.5436 8.39506C27.422 8.38931 27.2979 8.38334 27.1766 8.38334C27.0677 8.38334 26.9581 8.38931 26.8491 8.39506L26.835 8.39586V8.38296V8.28395H26.8482H26.8664C26.9795 8.28356 27.074 8.22306 27.1179 8.10659L27.6046 6.7933C27.6444 6.68715 27.6992 6.54449 27.7256 6.4304C27.8209 6.40005 27.9429 6.34251 28.0015 6.30759C28.0099 6.30501 28.0184 6.30104 28.0308 6.30104C28.0382 6.30084 28.0546 6.30263 28.0644 6.31773C28.073 6.34132 28.0825 6.36673 28.0917 6.38995L28.6516 7.88659C28.6875 7.98699 28.7237 8.09274 28.7634 8.17725C28.7986 8.25366 28.8544 8.2836 28.9522 8.28399H28.9832V8.29689V8.3959L28.9693 8.39506ZM28.1077 8.36947C28.2582 8.36451 28.4056 8.35895 28.5508 8.35895C28.692 8.35895 28.8242 8.36451 28.9564 8.36947V8.30973H28.9522C28.8481 8.31032 28.7762 8.27185 28.7388 8.18753C28.6992 8.10062 28.6621 7.99447 28.6265 7.89427L28.0668 6.39784C28.0576 6.37503 28.0487 6.34904 28.0407 6.3288C28.0382 6.32602 28.0388 6.32602 28.0363 6.32602H28.0308C28.0244 6.32602 28.0209 6.32781 28.013 6.32979C27.9545 6.3657 27.8324 6.42185 27.7424 6.44427C27.7236 6.55261 27.669 6.69546 27.6294 6.80142L27.1429 8.11491C27.0965 8.23911 26.9901 8.30995 26.8663 8.30973H26.8615V8.36947C26.9656 8.36451 27.071 8.35895 27.1766 8.35895C27.294 8.35895 27.4142 8.36451 27.5301 8.36947V8.30973H27.5105C27.4117 8.30854 27.2734 8.29802 27.2696 8.19703C27.2698 8.13989 27.3071 8.06669 27.3368 7.97007L27.3501 7.97382L27.3368 7.96965L27.4369 7.6637H28.1457L28.2677 8.0038C28.3019 8.09566 28.3295 8.17185 28.3295 8.21391C28.3253 8.30181 28.1969 8.30796 28.1279 8.30975H28.1077V8.36947H28.1077ZM27.4863 7.52798L27.7774 6.69326H27.7875H27.7939V6.70576L27.7905 6.70636L27.7939 6.70576V6.69326H27.8029L28.0915 7.52798H27.4863ZM27.5228 7.50318H28.0548L27.7902 6.73632L27.5228 7.50318ZM27.7806 6.70935L27.7875 6.70717L27.7806 6.70935Z" fill="#211E1F"/>
<path d="M29.1037 6.52817C28.8756 6.52817 28.8666 6.57978 28.8208 6.78849H28.7295C28.7415 6.70853 28.7569 6.62857 28.7664 6.54524C28.7786 6.46508 28.7841 6.3853 28.7841 6.30238H28.8575C28.8817 6.38829 28.958 6.38532 29.0396 6.38532H30.6086C30.6902 6.38532 30.7661 6.38254 30.7724 6.29645L30.8451 6.30796C30.8335 6.38532 30.8215 6.46252 30.8122 6.53988C30.8057 6.61708 30.8057 6.69444 30.8057 6.77143L30.7146 6.80337C30.7089 6.69762 30.6937 6.52817 30.4899 6.52817H29.9914V8.05079C29.9914 8.27143 30.098 8.29665 30.2435 8.29665H30.3012V8.38296C30.1828 8.38296 29.9703 8.37165 29.8058 8.37165C29.6237 8.37165 29.4106 8.38296 29.2922 8.38296V8.29665H29.3497C29.5173 8.29665 29.6024 8.28254 29.6024 8.05675V6.52817H29.1037Z" fill="#211E1F"/>
<path d="M30.301 8.39505C30.1817 8.39505 29.9688 8.38355 29.8056 8.38355C29.6239 8.38355 29.411 8.39505 29.2919 8.39505H29.2784V8.38295V8.28434H29.2919H29.3495C29.517 8.28057 29.5843 8.27859 29.5885 8.05674L29.5881 6.54069H29.1035V6.52817V6.51547H29.6149V8.05674C29.6149 8.2863 29.5164 8.30892 29.3495 8.30952H29.3048V8.37063C29.4251 8.36942 29.6292 8.35912 29.8056 8.35912C29.9644 8.35912 30.1676 8.36946 30.2877 8.37063V8.30952H30.2428C30.0967 8.30892 29.9783 8.27579 29.9779 8.05079V6.51547H30.4897C30.6937 6.51626 30.7205 6.67956 30.7262 6.78571L30.7926 6.76289C30.7926 6.68829 30.7928 6.61348 30.7987 6.53848C30.8071 6.46487 30.8185 6.39146 30.8297 6.31843L30.7837 6.31108C30.7698 6.39442 30.684 6.399 30.6084 6.39779H29.0394H29.024C28.9523 6.39858 28.8747 6.39462 28.8471 6.31426H28.7974C28.7965 6.39362 28.7908 6.47063 28.7788 6.54682C28.7708 6.62559 28.7558 6.70138 28.7445 6.77658H28.8096C28.8499 6.57716 28.8762 6.51247 29.1034 6.51547V6.52817V6.54067C28.8781 6.54426 28.8832 6.58015 28.8334 6.79166L28.8311 6.80138H28.8205H28.7139L28.7158 6.78708C28.7284 6.70634 28.7436 6.62656 28.7524 6.54382C28.7649 6.46386 28.7708 6.3845 28.7708 6.30235V6.28985H28.7839H28.8669L28.8694 6.29878C28.8907 6.371 28.9461 6.3714 29.0239 6.37259L29.0393 6.37299H30.6083C30.6922 6.37142 30.7535 6.37021 30.7588 6.29563L30.7597 6.28194L30.774 6.28473L30.8602 6.29743L30.8579 6.30993C30.8455 6.38652 30.8339 6.4639 30.8246 6.54069C30.8185 6.61688 30.8185 6.69446 30.8185 6.77144V6.78037L30.8099 6.78354L30.7021 6.82045L30.7015 6.80376C30.6937 6.69624 30.6817 6.54067 30.4897 6.54067H30.0042V8.05079C30.0074 8.26666 30.0982 8.28154 30.2428 8.28432H30.3141V8.29662V8.39503L30.301 8.39505Z" fill="#211E1F"/>
<path d="M30.958 8.29662H31.0006C31.1104 8.29662 31.2253 8.28275 31.2253 8.13373V6.63452C31.2253 6.48529 31.1104 6.47123 31.0006 6.47123H30.958V6.38531C31.0767 6.38531 31.2588 6.39662 31.4074 6.39662C31.56 6.39662 31.7424 6.38531 31.8853 6.38531V6.47123H31.8427C31.7333 6.47123 31.6174 6.48531 31.6174 6.63452V8.13373C31.6174 8.28275 31.7333 8.29662 31.8427 8.29662H31.8853V8.38295C31.7392 8.38295 31.5567 8.37164 31.4051 8.37164C31.2559 8.37164 31.0767 8.38295 30.958 8.38295V8.29662Z" fill="#211E1F"/>
<path d="M31.8849 8.39505C31.738 8.39505 31.5561 8.38333 31.4045 8.38333C31.2559 8.38333 31.0763 8.39505 30.9576 8.39505H30.9443V8.38295V8.29664V8.28434H30.9576H31.0002C31.11 8.28275 31.2108 8.27382 31.2112 8.13375V6.63452C31.2108 6.49484 31.11 6.48529 31.0002 6.48333H30.9443V6.47125V6.37303H30.9576C31.0763 6.37303 31.2588 6.38394 31.407 6.38394C31.5586 6.38394 31.7409 6.37303 31.8849 6.37303H31.8978V6.38531V6.48333H31.8849H31.8423C31.7312 6.48531 31.6315 6.49484 31.63 6.63452V8.13375C31.6315 8.27382 31.7312 8.28275 31.8423 8.28434H31.8978V8.29664V8.39505H31.8849ZM31.8712 8.37005V8.30952H31.8423C31.7333 8.30952 31.6043 8.29148 31.6043 8.13375V6.63452C31.6043 6.47639 31.7333 6.45853 31.8423 6.45853H31.8712V6.39781C31.7308 6.39861 31.5552 6.40892 31.407 6.40892C31.263 6.40892 31.0887 6.39861 30.9709 6.39781V6.45853H31.0002C31.1083 6.45853 31.2378 6.47639 31.2382 6.63452V8.13375C31.2378 8.29146 31.1083 8.30952 31.0002 8.30952H30.9709V8.37005C31.0881 8.36884 31.2601 8.35912 31.4045 8.35912C31.5519 8.35912 31.7279 8.36946 31.8712 8.37005H31.8712Z" fill="#211E1F"/>
<path d="M33.0968 6.34245C33.7448 6.34245 34.2612 6.72063 34.2612 7.32995C34.2612 7.98831 33.7597 8.42579 33.1126 8.42579C32.4676 8.42579 31.9756 8.01366 31.9756 7.39841C31.9756 6.80337 32.4646 6.34245 33.0968 6.34245ZM33.1427 8.29979C33.7326 8.29979 33.8352 7.81011 33.8352 7.39285C33.8352 6.9746 33.5958 6.46825 33.0909 6.46825C32.5589 6.46825 32.401 6.91468 32.401 7.29781C32.401 7.81011 32.6501 8.29979 33.1427 8.29979Z" fill="#211E1F"/>
<path d="M31.9619 7.39841C31.9632 6.79642 32.4582 6.33075 33.0966 6.32996V6.34246V6.35454C32.4719 6.35454 31.9883 6.80952 31.9877 7.39839C31.9891 8.00672 32.4742 8.41267 33.1125 8.41287C33.7533 8.41267 34.2476 7.98132 34.2486 7.32936C34.248 6.72777 33.7394 6.35533 33.0967 6.35454V6.34246V6.32996C33.7497 6.33035 34.2731 6.7123 34.2744 7.32936C34.2738 7.99462 33.7657 8.4367 33.1125 8.43787C32.4623 8.43668 31.9632 8.02041 31.962 7.39839H31.9619V7.39841ZM32.3878 7.29781C32.3886 6.91291 32.5484 6.45535 33.091 6.45535C33.607 6.45656 33.8479 6.97244 33.8488 7.39285C33.8479 7.81011 33.7436 8.31172 33.1428 8.31172V8.29982V8.28749C33.7209 8.28672 33.821 7.81011 33.8224 7.39285C33.8224 6.97799 33.5851 6.48136 33.091 6.48075C32.5695 6.48134 32.4151 6.91666 32.4141 7.29781C32.4145 7.80753 32.6614 8.2863 33.1428 8.28749V8.29982V8.31172C32.6382 8.31111 32.3886 7.81311 32.3878 7.29781Z" fill="#211E1F"/>
<path d="M36.31 7.81885L36.3161 7.8133V6.74028C36.3161 6.50536 36.1424 6.47123 36.0511 6.47123H35.9854V6.3853C36.1279 6.3853 36.2676 6.39661 36.4101 6.39661C36.5351 6.39661 36.6597 6.3853 36.7845 6.3853V6.47123H36.7385C36.6112 6.47123 36.4681 6.49403 36.4681 6.83453V8.13691C36.4681 8.23693 36.4711 8.33691 36.4864 8.42562H36.3711L34.8053 6.78296V7.96212C34.8053 8.21113 34.8567 8.29665 35.0907 8.29665H35.1428V8.38296C35.0119 8.38296 34.8814 8.37165 34.7507 8.37165C34.6139 8.37165 34.4737 8.38296 34.3369 8.38296V8.29665H34.3797C34.5899 8.29665 34.6529 8.1625 34.6529 7.93375V6.72839C34.6529 6.56828 34.5137 6.47125 34.3765 6.47125H34.3369V6.38534C34.4524 6.38534 34.5711 6.39663 34.6864 6.39663C34.7777 6.39663 34.8656 6.38534 34.9571 6.38534L36.31 7.81885Z" fill="#211E1F"/>
<path d="M36.4868 8.43789L36.361 8.43373L34.8186 6.81527V7.96212C34.8219 8.21093 34.8622 8.28136 35.0905 8.28394H35.1563V8.29684V8.39506H35.143C35.0112 8.39506 34.8808 8.38355 34.7509 8.38355C34.6145 8.38355 34.475 8.39506 34.3369 8.39506H34.3242V8.38275V8.28394H34.3369H34.3799C34.5804 8.28337 34.6379 8.16194 34.6404 7.93375V6.72839C34.64 6.57601 34.5074 6.48355 34.3767 6.48335H34.3242V6.47125V6.37303H34.3369C34.4535 6.37303 34.5719 6.38396 34.6866 6.38396C34.7768 6.38396 34.8645 6.37303 34.9674 6.37722L36.303 7.79289V6.74051C36.3021 6.51275 36.1402 6.48535 36.0513 6.48337H35.9714V6.47129V6.37307H35.9851C36.1282 6.37307 36.2684 6.38398 36.4098 6.38398C36.5346 6.38398 36.6586 6.37307 36.7846 6.37307H36.7977V6.38535V6.48337H36.7846H36.7386C36.6136 6.48674 36.4843 6.49746 36.4817 6.83456V8.13674C36.4817 8.23674 36.484 8.33652 36.4988 8.42402L36.5013 8.43791H36.4868V8.43789ZM36.3714 8.41289H36.4708C36.4576 8.32698 36.4552 8.23174 36.4552 8.1367V6.83452C36.4552 6.49047 36.6085 6.45932 36.7388 6.45833H36.7716V6.39781C36.6517 6.39861 36.5316 6.40892 36.41 6.40892C36.2716 6.40892 36.1357 6.39861 35.998 6.39781V6.45833H36.0513C36.1456 6.45932 36.329 6.49843 36.329 6.74047L36.3256 7.82182L36.3199 7.82779L36.3102 7.8369L34.9573 6.39783C34.8678 6.39783 34.779 6.40894 34.6867 6.40894C34.5747 6.40894 34.4607 6.39863 34.35 6.39783V6.45835H34.3768C34.5195 6.45934 34.6664 6.56073 34.6664 6.72839V7.93375C34.6664 8.16252 34.5986 8.30894 34.38 8.30974L34.35 8.30952V8.37006C34.482 8.36946 34.6173 8.35914 34.751 8.35914C34.8776 8.35914 35.0035 8.36946 35.1298 8.37006V8.30974H35.0906C34.852 8.30952 34.7923 8.21093 34.7923 7.9621V6.75079L36.3714 8.41289ZM36.3102 7.81865L36.3199 7.81051L36.3102 7.81865ZM36.303 7.81329V7.81228L36.3005 7.81012L36.303 7.81329Z" fill="#211E1F"/>
<path d="M37.2733 7.97361C37.2436 8.07064 37.2067 8.14563 37.2067 8.19663C37.2067 8.28274 37.3347 8.29663 37.4344 8.29663H37.4683V8.38294C37.3467 8.37677 37.2219 8.37163 37.1003 8.37163C36.9904 8.37163 36.8814 8.37681 36.7725 8.38294V8.29663H36.7897C36.9088 8.29663 37.0096 8.23093 37.0545 8.11052L37.5415 6.7974C37.5807 6.69145 37.6357 6.54839 37.6534 6.44226C37.7508 6.41111 37.8722 6.35397 37.9306 6.31944C37.9392 6.31649 37.9454 6.31349 37.9546 6.31349C37.9637 6.31349 37.9694 6.31349 37.9755 6.32242C37.9848 6.34504 37.9943 6.37103 38.0033 6.39385L38.5624 7.89067C38.5988 7.99067 38.6351 8.09643 38.6751 8.18254C38.7116 8.2627 38.7757 8.29663 38.8756 8.29663H38.8942V8.38294C38.7572 8.37679 38.6203 8.37165 38.4743 8.37165C38.3256 8.37165 38.1735 8.37681 38.0183 8.38294V8.29663H38.0521C38.1214 8.29663 38.2407 8.28552 38.2407 8.21389C38.2407 8.17679 38.2131 8.0996 38.1791 8.00774L38.0611 7.67579H37.371L37.2733 7.97361ZM37.7177 6.70575H37.7116L37.4285 7.51567H37.9974L37.7177 6.70575Z" fill="#211E1F"/>
<path d="M38.8925 8.39505C38.7557 8.3899 38.6191 8.38355 38.4739 8.38355C38.3257 8.38355 38.1735 8.3899 38.0183 8.39505L38.0049 8.39585V8.38275V8.28434H38.0179H38.051C38.1218 8.28434 38.2266 8.26886 38.2268 8.2139C38.2274 8.18134 38.2 8.10339 38.1661 8.01172L38.0506 7.68811H37.3796L37.2856 7.97718C37.2553 8.07519 37.219 8.15039 37.2196 8.19664C37.2196 8.26688 37.3334 8.28434 37.434 8.28434H37.4804V8.29664V8.39585L37.4669 8.39505C37.3452 8.3899 37.2209 8.38355 37.0999 8.38355C36.9909 8.38355 36.8817 8.3899 36.7721 8.39505L36.7588 8.39585V8.38275V8.28434H36.7721H36.7894C36.9028 8.28392 36.9976 8.22264 37.0419 8.10656L37.5284 6.79328C37.5672 6.68713 37.622 6.54447 37.649 6.43078C37.7445 6.39963 37.8665 6.34248 37.9256 6.30754C37.9336 6.30496 37.9418 6.30159 37.9542 6.30159C37.9622 6.3008 37.9778 6.30258 37.9875 6.31826C37.9966 6.3407 38.0054 6.36667 38.0156 6.38989L38.5746 7.88652C38.6109 7.98692 38.6473 8.09268 38.6867 8.17779C38.7223 8.25359 38.7778 8.28355 38.8748 8.28434H38.9064V8.29664V8.39585L38.8925 8.39505ZM38.031 8.36984C38.1813 8.36448 38.3293 8.35892 38.4739 8.35892C38.6153 8.35892 38.7479 8.36448 38.8803 8.36944L38.8798 8.3097H38.8748C38.7719 8.30992 38.7001 8.27182 38.6623 8.1875C38.6223 8.10059 38.586 7.99444 38.5497 7.89462L37.9903 6.39782C37.9812 6.375 37.9719 6.34901 37.9646 6.32957C37.962 6.326 37.9623 6.326 37.9599 6.326H37.9542C37.9479 6.326 37.9445 6.32798 37.9371 6.32996C37.8779 6.36508 37.756 6.42221 37.6661 6.44425C37.6473 6.55258 37.5921 6.69524 37.5529 6.80139L37.0662 8.11488C37.02 8.23908 36.9137 8.30992 36.7894 8.3097H36.7849V8.36944C36.8895 8.36448 36.994 8.35892 37.0999 8.35892C37.2177 8.35892 37.3376 8.36448 37.4546 8.36944V8.3097H37.434C37.3351 8.30851 37.1964 8.29841 37.1928 8.19662C37.1935 8.13988 37.2312 8.06706 37.2605 7.97004L37.2729 7.97379L37.2605 7.96962L37.3606 7.66367H38.0695L38.1914 8.00375C38.2249 8.09583 38.2525 8.17182 38.2525 8.21389C38.248 8.30178 38.1205 8.30791 38.051 8.3097H38.0309V8.36984H38.031ZM37.41 7.5278L37.7015 6.69326H37.7107H37.7173V6.70576L37.7141 6.70635L37.7173 6.70576V6.69326H37.7268L38.0141 7.5278H37.41ZM37.4464 7.50317H37.9781L37.7137 6.73671L37.4464 7.50317ZM37.7047 6.70935L37.7107 6.70717L37.7047 6.70935Z" fill="#211E1F"/>
<path d="M39.659 8.10238C39.659 8.21688 39.7433 8.25099 39.8407 8.26269C39.9653 8.27142 40.1021 8.27142 40.2425 8.25694C40.3698 8.24248 40.4795 8.17383 40.5338 8.10238C40.5823 8.03928 40.6097 7.95912 40.628 7.89623H40.7162C40.6829 8.05932 40.6403 8.22004 40.6036 8.38293C40.3367 8.38293 40.0686 8.37162 39.8015 8.37162C39.5336 8.37162 39.2665 8.38293 38.999 8.38293V8.2966H39.0407C39.1508 8.2966 39.2697 8.28273 39.2697 8.10515V6.63452C39.2697 6.48529 39.1508 6.47123 39.0407 6.47123H38.999V6.38531C39.1596 6.38531 39.3179 6.39662 39.4788 6.39662C39.6343 6.39662 39.7861 6.38531 39.9413 6.38531V6.47123H39.8647C39.7497 6.47123 39.659 6.4744 39.659 6.62559V8.10238Z" fill="#211E1F"/>
<path d="M40.6044 8.39507C40.3365 8.39507 40.069 8.38356 39.8023 8.38356C39.5346 8.38356 39.2671 8.39507 38.9992 8.39507H38.9863V8.38277V8.28435H38.9992H39.0416C39.1518 8.28197 39.256 8.27483 39.2572 8.10519V6.63397C39.2559 6.49489 39.1524 6.48536 39.0416 6.48336H38.9863V6.47128V6.37306H38.9992C39.1609 6.37306 39.3192 6.38398 39.4798 6.38398C39.6341 6.38398 39.7859 6.37306 39.9421 6.37306H39.9546V6.38536V6.48336H39.9421H39.8658C39.748 6.48653 39.6746 6.48138 39.6723 6.62564V8.10243C39.6731 8.20898 39.7473 8.23775 39.8422 8.25025C39.8959 8.25382 39.9522 8.256 40.0108 8.256C40.0852 8.256 40.1626 8.25263 40.241 8.24469C40.365 8.23102 40.4716 8.16374 40.5239 8.09548C40.5707 8.03437 40.5977 7.9558 40.6158 7.8933L40.6186 7.8838H40.6287H40.733L40.7303 7.89888C40.6959 8.06257 40.6542 8.22249 40.6173 8.38538L40.6148 8.39511H40.6045H40.6044V8.39507ZM40.5934 8.37007C40.6286 8.21491 40.6685 8.0631 40.7012 7.90834H40.6388C40.6198 7.97064 40.5928 8.04743 40.545 8.10993C40.4883 8.18413 40.3757 8.25398 40.2439 8.26925C40.1643 8.27699 40.0854 8.28096 40.0108 8.28096C39.952 8.28096 39.8949 8.27838 39.8398 8.27479C39.741 8.26447 39.6451 8.22479 39.6455 8.10239V6.6256C39.6455 6.46667 39.7523 6.45854 39.8658 6.45854H39.9286V6.39782C39.7787 6.39862 39.6312 6.40911 39.4798 6.40911C39.3223 6.40911 39.1684 6.39862 39.0124 6.39782V6.45854H39.0416C39.1501 6.45854 39.2829 6.4764 39.2829 6.63394V8.10517C39.2829 8.29029 39.1507 8.30953 39.0416 8.30953H39.0124V8.37005C39.2753 8.36985 39.5382 8.35913 39.8023 8.35913C40.0665 8.35913 40.3304 8.36985 40.5934 8.37007Z" fill="#211E1F"/>
<path d="M40.6796 6.30397C40.8627 6.30397 40.9995 6.43651 40.9995 6.60635C40.9995 6.7754 40.8627 6.90675 40.6796 6.90675C40.4964 6.90675 40.3594 6.7754 40.3594 6.60635C40.3594 6.43653 40.4964 6.30397 40.6796 6.30397ZM40.6796 6.8506C40.8227 6.8506 40.9327 6.73552 40.9327 6.60635C40.9327 6.47639 40.8244 6.36032 40.6796 6.36032C40.5356 6.36032 40.4256 6.47641 40.4256 6.60635C40.4256 6.73552 40.5356 6.8506 40.6796 6.8506ZM40.5202 6.76508V6.7502C40.5596 6.74504 40.5668 6.74623 40.5668 6.72322V6.5002C40.5668 6.46887 40.5632 6.45816 40.5217 6.45972V6.44445H40.6854C40.7419 6.44445 40.7936 6.46964 40.7936 6.52441C40.7936 6.56925 40.7619 6.60238 40.7179 6.61528L40.7704 6.68431C40.795 6.71566 40.8226 6.74504 40.841 6.75534V6.76506H40.7786C40.7487 6.76506 40.7225 6.70574 40.6635 6.62617H40.6281V6.72637C40.6281 6.74621 40.6355 6.74502 40.6749 6.75018V6.76506H40.5202V6.76508ZM40.6281 6.60635H40.6658C40.7071 6.60635 40.7265 6.57679 40.7265 6.52937C40.7265 6.48135 40.6966 6.46447 40.6637 6.46447H40.6281V6.60635Z" fill="#211E1F"/>
</g>
<defs>
<clipPath id="clip0">
<rect width="41" height="10" fill="white"/>
</clipPath>
</defs>
</svg>
