<svg width="28" height="24" viewBox="0 0 28 24" fill="none" xmlns="http://www.w3.org/2000/svg">
<path d="M6.93354 20.9803V19.7844C6.94021 19.6838 6.9263 19.5829 6.89272 19.4884C6.85915 19.3939 6.80668 19.3079 6.73882 19.2363C6.67097 19.1646 6.58927 19.1089 6.49919 19.0728C6.4091 19.0367 6.31269 19.0211 6.21638 19.027C6.09031 19.0184 5.96434 19.0452 5.85161 19.1048C5.73888 19.1645 5.64353 19.2546 5.57551 19.3658C5.5135 19.2579 5.42479 19.1695 5.31871 19.1098C5.21263 19.0502 5.09312 19.0216 4.97278 19.027C4.86788 19.0215 4.76341 19.0447 4.66974 19.0943C4.57606 19.1439 4.49642 19.2183 4.43872 19.31V19.0748H4.04199V20.9803H4.44254V19.9319C4.43402 19.8667 4.43938 19.8004 4.45824 19.7377C4.47709 19.6749 4.50898 19.6173 4.55162 19.5689C4.59427 19.5206 4.64661 19.4827 4.7049 19.4579C4.7632 19.4331 4.82602 19.4221 4.88886 19.4256C5.15207 19.4256 5.28559 19.605 5.28559 19.9279V20.9883H5.68613V19.9319C5.67796 19.8668 5.68357 19.8006 5.70255 19.738C5.72154 19.6755 5.75344 19.618 5.79601 19.5697C5.83858 19.5214 5.89078 19.4835 5.94891 19.4586C6.00705 19.4337 6.0697 19.4224 6.13246 19.4256C6.4033 19.4256 6.533 19.605 6.533 19.9279V20.9883L6.93354 20.9803ZM12.8597 19.0748H12.2074V18.4968H11.8068V19.0748H11.4444V19.4535H11.8145V20.3305C11.8145 20.773 11.9785 21.0361 12.4477 21.0361C12.623 21.0367 12.7949 20.9856 12.9436 20.8886L12.8292 20.5338C12.7228 20.6002 12.602 20.6372 12.4782 20.6415C12.2875 20.6415 12.215 20.5139 12.215 20.3226V19.4535H12.8635L12.8597 19.0748ZM16.2434 19.027C16.1466 19.024 16.0509 19.0484 15.9663 19.0975C15.8817 19.1466 15.8114 19.2186 15.7627 19.306V19.0748H15.3698V20.9803H15.7665V19.912C15.7665 19.597 15.8962 19.4216 16.148 19.4216C16.2328 19.4204 16.3171 19.4367 16.3959 19.4695L16.518 19.0708C16.4274 19.037 16.332 19.0195 16.2357 19.019L16.2434 19.027ZM11.1278 19.2263C10.9033 19.0868 10.6451 19.0176 10.384 19.027C9.92237 19.027 9.62101 19.2582 9.62101 19.6369C9.62101 19.9478 9.84227 20.1392 10.2504 20.199L10.4412 20.2269C10.6586 20.2588 10.7616 20.3186 10.7616 20.4262C10.7616 20.5737 10.6167 20.6574 10.3458 20.6574C10.1279 20.664 9.91431 20.5938 9.73927 20.4581L9.54853 20.781C9.77963 20.9496 10.0564 21.0363 10.3382 21.0282C10.8646 21.0282 11.1698 20.769 11.1698 20.4063C11.1698 20.0435 10.9295 19.896 10.5327 19.8362L10.342 19.8083C10.1703 19.7844 10.033 19.7485 10.033 19.621C10.033 19.4934 10.1627 19.3977 10.3801 19.3977C10.5811 19.4002 10.7781 19.4564 10.9523 19.5612L11.1278 19.2263ZM21.7537 19.027C21.657 19.024 21.5613 19.0484 21.4767 19.0975C21.3921 19.1466 21.3217 19.2186 21.2731 19.306V19.0748H20.8801V20.9803H21.2769V19.912C21.2769 19.597 21.4066 19.4216 21.6583 19.4216C21.7432 19.4204 21.8274 19.4367 21.9063 19.4695L22.0284 19.0708C21.9378 19.037 21.8423 19.0195 21.7461 19.019L21.7537 19.027ZM16.642 20.0236C16.6373 20.1575 16.6594 20.291 16.7068 20.4154C16.7543 20.5399 16.8261 20.6527 16.9177 20.7465C17.0092 20.8403 17.1185 20.9131 17.2386 20.9602C17.3586 21.0073 17.4867 21.0278 17.6147 21.0202C17.8529 21.0328 18.0871 20.9518 18.2709 20.793L18.0801 20.4581C17.943 20.5674 17.7758 20.6275 17.6033 20.6295C17.4567 20.6171 17.3198 20.5475 17.2201 20.4345C17.1203 20.3215 17.065 20.1734 17.065 20.0196C17.065 19.8659 17.1203 19.7177 17.2201 19.6047C17.3198 19.4917 17.4567 19.4221 17.6033 19.4097C17.7758 19.4117 17.943 19.4718 18.0801 19.5811L18.2709 19.2462C18.0871 19.0874 17.8529 19.0064 17.6147 19.019C17.4867 19.0114 17.3586 19.0319 17.2386 19.079C17.1185 19.1261 17.0092 19.1989 16.9177 19.2927C16.8261 19.3866 16.7543 19.4993 16.7068 19.6238C16.6594 19.7483 16.6373 19.8817 16.642 20.0156V20.0236ZM20.3575 20.0236V19.0748H19.9608V19.306C19.8934 19.2155 19.8064 19.1429 19.7069 19.0944C19.6074 19.0459 19.4983 19.0228 19.3886 19.027C19.1357 19.027 18.8931 19.132 18.7142 19.3189C18.5354 19.5058 18.4349 19.7593 18.4349 20.0236C18.4349 20.2879 18.5354 20.5414 18.7142 20.7283C18.8931 20.9152 19.1357 21.0202 19.3886 21.0202C19.4983 21.0244 19.6074 21.0013 19.7069 20.9528C19.8064 20.9043 19.8934 20.8317 19.9608 20.7411V20.9723H20.3575V20.0236ZM18.8812 20.0236C18.8876 19.9114 18.9251 19.8036 18.9893 19.7135C19.0535 19.6234 19.1416 19.5549 19.2426 19.5163C19.3436 19.4778 19.4532 19.471 19.5578 19.4968C19.6625 19.5225 19.7576 19.5797 19.8316 19.6612C19.9056 19.7428 19.9551 19.8452 19.9741 19.9558C19.993 20.0664 19.9807 20.1803 19.9385 20.2837C19.8962 20.387 19.826 20.4752 19.7365 20.5373C19.6469 20.5995 19.5419 20.6329 19.4344 20.6335C19.3588 20.6345 19.2839 20.6192 19.2144 20.5884C19.1448 20.5577 19.0821 20.5123 19.0301 20.455C18.9782 20.3977 18.9381 20.3298 18.9125 20.2556C18.8869 20.1813 18.8762 20.1023 18.8812 20.0236ZM14.0938 19.027C13.8408 19.0307 13.5997 19.1392 13.4233 19.3288C13.247 19.5183 13.1499 19.7732 13.1534 20.0375C13.157 20.3019 13.2608 20.5539 13.4422 20.7382C13.6236 20.9224 13.8675 21.0239 14.1205 21.0202C14.3949 21.0349 14.6648 20.9426 14.8777 20.7611L14.687 20.4541C14.5363 20.5803 14.3497 20.6505 14.1567 20.6534C14.0256 20.6652 13.8952 20.6231 13.7933 20.536C13.6915 20.4489 13.6261 20.3237 13.6112 20.187H14.9654C14.9654 20.1352 14.9654 20.0834 14.9654 20.0276C14.9654 19.4296 14.6107 19.031 14.0995 19.031L14.0938 19.027ZM14.0938 19.3977C14.1531 19.3964 14.2122 19.4073 14.2675 19.4298C14.3228 19.4524 14.3734 19.4861 14.4162 19.529C14.4591 19.572 14.4934 19.6233 14.5173 19.6801C14.5412 19.7369 14.5541 19.7981 14.5553 19.8601H13.6017C13.6086 19.7322 13.6631 19.6122 13.7537 19.5257C13.8442 19.4393 13.9636 19.3934 14.0861 19.3977H14.0938ZM24.033 20.0276V18.3094H23.6515V19.306C23.5842 19.2155 23.4971 19.1429 23.3976 19.0944C23.2981 19.0459 23.189 19.0228 23.0793 19.027C22.8264 19.027 22.5838 19.132 22.405 19.3189C22.2261 19.5058 22.1256 19.7593 22.1256 20.0236C22.1256 20.2879 22.2261 20.5414 22.405 20.7283C22.5838 20.9152 22.8264 21.0202 23.0793 21.0202C23.189 21.0244 23.2981 21.0013 23.3976 20.9528C23.4971 20.9043 23.5842 20.8317 23.6515 20.7411V20.9723H24.033V20.0276ZM24.6949 20.7033C24.7197 20.703 24.7443 20.7077 24.7673 20.7172C24.7892 20.7266 24.8093 20.7401 24.8265 20.7571C24.8432 20.7743 24.8568 20.7945 24.8665 20.8169C24.8762 20.8402 24.8812 20.8653 24.8812 20.8906C24.8812 20.916 24.8762 20.9411 24.8665 20.9644C24.8568 20.9867 24.8432 21.007 24.8265 21.0242C24.8093 21.0412 24.7892 21.0547 24.7673 21.064C24.7445 21.0746 24.7198 21.08 24.6949 21.08C24.6587 21.0797 24.6234 21.0687 24.593 21.0482C24.5626 21.0277 24.5384 20.9987 24.5232 20.9644C24.5136 20.9411 24.5087 20.916 24.5087 20.8906C24.5087 20.8653 24.5136 20.8402 24.5232 20.8169C24.5329 20.7945 24.5465 20.7743 24.5632 20.7571C24.5804 20.7401 24.6005 20.7266 24.6224 20.7172C24.6472 20.7069 24.6739 20.7021 24.7006 20.7033H24.6949ZM24.6949 21.0401C24.7139 21.0402 24.7327 21.0362 24.7502 21.0282C24.7666 21.0205 24.7815 21.0097 24.794 20.9963C24.8179 20.9691 24.8311 20.9335 24.8311 20.8966C24.8311 20.8597 24.8179 20.8241 24.794 20.7969C24.7815 20.7835 24.7666 20.7727 24.7502 20.7651C24.7327 20.7571 24.7139 20.753 24.6949 20.7531C24.6758 20.7532 24.657 20.7573 24.6395 20.7651C24.6224 20.7724 24.6068 20.7832 24.5938 20.7969C24.5699 20.8241 24.5567 20.8597 24.5567 20.8966C24.5567 20.9335 24.5699 20.9691 24.5938 20.9963C24.6069 21.0099 24.6224 21.0208 24.6395 21.0282C24.6588 21.0368 24.6796 21.0409 24.7006 21.0401H24.6949ZM24.7063 20.8029C24.7241 20.802 24.7416 20.8077 24.7559 20.8189C24.7617 20.8239 24.7663 20.8304 24.7693 20.8376C24.7723 20.8449 24.7736 20.8528 24.7731 20.8607C24.7733 20.8674 24.7723 20.874 24.77 20.8801C24.7677 20.8863 24.7642 20.8919 24.7597 20.8966C24.7486 20.9071 24.7345 20.9134 24.7197 20.9145L24.775 20.9803H24.7311L24.6796 20.9145H24.6624V20.9803H24.6262V20.8049L24.7063 20.8029ZM24.6643 20.8368V20.8846H24.7063C24.7138 20.887 24.7217 20.887 24.7292 20.8846C24.7305 20.8819 24.7312 20.8788 24.7312 20.8757C24.7312 20.8726 24.7305 20.8695 24.7292 20.8667C24.7305 20.8639 24.7312 20.8609 24.7312 20.8577C24.7312 20.8546 24.7305 20.8516 24.7292 20.8488C24.7217 20.8464 24.7138 20.8464 24.7063 20.8488L24.6643 20.8368ZM22.5662 20.0276C22.5726 19.9154 22.6101 19.8076 22.6743 19.7175C22.7386 19.6274 22.8266 19.5588 22.9276 19.5203C23.0286 19.4818 23.1382 19.475 23.2428 19.5008C23.3475 19.5265 23.4426 19.5837 23.5166 19.6652C23.5906 19.7468 23.6401 19.8492 23.6591 19.9597C23.6781 20.0703 23.6657 20.1843 23.6235 20.2877C23.5812 20.391 23.511 20.4792 23.4215 20.5413C23.3319 20.6035 23.2269 20.6369 23.1194 20.6375C23.0439 20.6385 22.969 20.6231 22.8994 20.5924C22.8298 20.5617 22.7671 20.5163 22.7151 20.459C22.6632 20.4017 22.6231 20.3338 22.5975 20.2596C22.5719 20.1853 22.5612 20.1063 22.5662 20.0276ZM9.17088 20.0276V19.0748H8.77414V19.306C8.70677 19.2155 8.61975 19.1429 8.52026 19.0944C8.42076 19.0459 8.31166 19.0228 8.20194 19.027C7.94901 19.027 7.70643 19.132 7.52759 19.3189C7.34874 19.5058 7.24826 19.7593 7.24826 20.0236C7.24826 20.2879 7.34874 20.5414 7.52759 20.7283C7.70643 20.9152 7.94901 21.0202 8.20194 21.0202C8.31166 21.0244 8.42076 21.0013 8.52026 20.9528C8.61975 20.9043 8.70677 20.8317 8.77414 20.7411V20.9723H9.17088V20.0276ZM7.69458 20.0276C7.70091 19.9154 7.73848 19.8076 7.80269 19.7175C7.86689 19.6274 7.95491 19.5588 8.05592 19.5203C8.15692 19.4818 8.2665 19.475 8.37116 19.5008C8.47582 19.5265 8.57099 19.5837 8.64495 19.6652C8.71891 19.7468 8.76843 19.8492 8.78742 19.9597C8.8064 20.0703 8.79402 20.1843 8.75181 20.2877C8.70959 20.391 8.63937 20.4792 8.5498 20.5413C8.46024 20.6035 8.35523 20.6369 8.24771 20.6375C8.17188 20.639 8.09655 20.6241 8.02653 20.5936C7.9565 20.5632 7.8933 20.5178 7.84094 20.4605C7.78857 20.4031 7.74818 20.335 7.72233 20.2605C7.69648 20.186 7.68573 20.1067 7.69077 20.0276H7.69458Z" fill="#231F20"/>
<path d="M17.0043 4.55444H10.9961V15.8379H17.0043V4.55444Z" fill="#FF5F00"/>
<path d="M11.6869 10.3764C11.6858 9.28957 11.9214 8.21672 12.3757 7.2391C12.8301 6.26148 13.4914 5.40471 14.3095 4.73368C13.2966 3.90177 12.0801 3.38445 10.799 3.24085C9.51803 3.09726 8.2242 3.33317 7.06542 3.92164C5.90665 4.51011 4.92968 5.42739 4.24617 6.56864C3.56266 7.70989 3.2002 9.02907 3.2002 10.3754C3.2002 11.7217 3.56266 13.0409 4.24617 14.1822C4.92968 15.3234 5.90665 16.2407 7.06542 16.8292C8.2242 17.4176 9.51803 17.6536 10.799 17.51C12.0801 17.3664 13.2966 16.849 14.3095 16.0171C13.4917 15.3463 12.8305 14.4899 12.3762 13.5126C11.9218 12.5354 11.6861 11.4629 11.6869 10.3764Z" fill="#EB001B"/>
<path d="M25.1103 10.1971C25.1103 11.5436 24.7478 12.8628 24.0641 14.0041C23.3805 15.1454 22.4034 16.0627 21.2445 16.6511C20.0855 17.2395 18.7916 17.4752 17.5105 17.3314C16.2294 17.1876 15.0129 16.67 14 15.8379C14.8175 15.1665 15.4785 14.3098 15.933 13.3325C16.3875 12.3552 16.6236 11.2828 16.6236 10.1962C16.6236 9.10955 16.3875 8.03714 15.933 7.05984C15.4785 6.08253 14.8175 5.22585 14 4.55443C15.0129 3.72226 16.2294 3.20469 17.5105 3.06088C18.7916 2.91708 20.0855 3.15284 21.2445 3.74123C22.4034 4.32961 23.3805 5.24687 24.0641 6.38816C24.7478 7.52945 25.1103 8.84872 25.1103 10.1952V10.1971Z" fill="#F79E1B"/>
<path d="M24.4547 14.642V14.4108H24.5444V14.3629H24.3174V14.4108H24.4147V14.642H24.4547ZM24.8953 14.642V14.3629H24.8266L24.7465 14.5622L24.6664 14.3629H24.6054V14.642H24.655V14.4327L24.7294 14.6141H24.7809L24.8553 14.4327V14.644L24.8953 14.642Z" fill="#F79E1B"/>
</svg>
