<svg width="32" height="10" viewBox="0 0 32 10" fill="none" xmlns="http://www.w3.org/2000/svg">
<g clip-path="url(#clip0)">
<path d="M13.8666 9.46151H11.2744L12.8958 0.168457H15.4879L13.8666 9.46151Z" fill="#00579F"/>
<path d="M23.2643 0.395643C22.753 0.207611 21.942 0 20.9392 0C18.3793 0 16.5767 1.26537 16.5656 3.07447C16.5443 4.40922 17.8563 5.15058 18.8375 5.59563C19.8404 6.0504 20.1813 6.34723 20.1813 6.75259C20.1711 7.37516 19.3709 7.66214 18.6246 7.66214C17.5896 7.66214 17.0351 7.51418 16.1924 7.16781L15.851 7.01933L15.4883 9.10542C16.0963 9.36218 17.2164 9.59002 18.3793 9.60001C21.0993 9.60001 22.8701 8.35422 22.891 6.42633C22.9014 5.36844 22.2086 4.55784 20.7151 3.89545C19.8085 3.47025 19.2532 3.18353 19.2532 2.74847C19.2639 2.35296 19.7229 1.94786 20.7463 1.94786C21.589 1.92802 22.2082 2.11579 22.6773 2.30369L22.9117 2.40237L23.2643 0.395643Z" fill="#00579F"/>
<path d="M26.7088 6.16931C26.9223 5.63544 27.7438 3.56919 27.7438 3.56919C27.733 3.58903 27.9568 3.02546 28.0848 2.67949L28.266 3.48023C28.266 3.48023 28.7569 5.70468 28.8635 6.16931C28.4583 6.16931 27.2208 6.16931 26.7088 6.16931ZM29.9086 0.168457H27.9035C27.2852 0.168457 26.8154 0.336385 26.5487 0.939505L22.6982 9.46138H25.4182C25.4182 9.46138 25.866 8.3144 25.9622 8.06737C26.2606 8.06737 28.9066 8.06737 29.2904 8.06737C29.3648 8.39363 29.5997 9.46138 29.5997 9.46138H31.9999L29.9086 0.168457Z" fill="#00579F"/>
<path d="M9.10896 0.168457L6.57032 6.50544L6.29291 5.22023C5.82357 3.73726 4.35161 2.12604 2.70898 1.3249L5.03429 9.45167H7.77549L11.85 0.168457H9.10896Z" fill="#00579F"/>
<path d="M4.2133 0.168457H0.0426673L0 0.356226C3.25336 1.12741 5.40799 2.98631 6.29323 5.22062L5.38659 0.949624C5.23732 0.356095 4.77861 0.188035 4.2133 0.168457Z" fill="#FAA61A"/>
</g>
<defs>
<clipPath id="clip0">
<rect width="32" height="9.6" fill="white"/>
</clipPath>
</defs>
</svg>
